<svg width="503" height="75" viewBox="0 0 503 75" fill="none" xmlns="http://www.w3.org/2000/svg">
<path fill-rule="evenodd" clip-rule="evenodd" d="M234.157 35.508H223.84C224.223 34.7784 224.603 34.0613 224.979 33.3503L224.979 33.3498L224.981 33.3473L224.981 33.3469L224.982 33.3445C226.334 30.7894 227.644 28.3139 228.954 25.6225C229.836 27.2995 230.696 28.9324 231.556 30.5653C232.415 32.1981 233.275 33.831 234.157 35.508ZM245.513 57.4454C245.519 57.4587 245.526 57.4721 245.533 57.4854V57.3972H245.49C245.436 57.2795 245.39 57.1626 245.345 57.0498C245.267 56.853 245.194 56.6688 245.092 56.5146C244.034 54.4405 242.953 52.3885 241.873 50.3365C240.793 48.2843 239.713 46.232 238.654 44.1577C238.39 43.6282 238.037 43.3634 237.42 43.3634H220.577C219.959 43.3634 219.607 43.5399 219.254 44.1577C217.138 48.3061 215.021 52.3662 212.817 56.5146C212.64 56.7793 212.552 57.0441 212.464 57.3972H245.49C245.498 57.4132 245.505 57.4293 245.513 57.4454ZM199.942 65.4291H258.319C248.543 46.9176 238.856 28.4941 229.168 10.0708L229.164 10.0636L229.157 10.0505L229.154 10.0444L229.152 10.0404L229.131 10C219.342 28.5352 209.642 46.9822 199.942 65.4291ZM128.188 20.3596C128.103 20.2385 127.999 20.0922 127.896 19.8854C128.034 19.8577 128.155 19.83 128.264 19.8051C128.503 19.7505 128.684 19.7089 128.866 19.7089C130.255 19.742 131.645 19.7379 133.03 19.7337C135.336 19.7268 137.63 19.72 139.889 19.8854C144.034 20.1502 147.914 22.6216 148.884 27.3878C149.854 32.154 147.825 36.9202 142.534 38.6854C142.093 38.862 141.653 38.862 141.3 38.3324L128.337 20.5915C128.3 20.5184 128.249 20.4453 128.188 20.3597L128.188 20.3596ZM151.882 65.4291H161.141C156.291 58.7211 151.529 52.1897 146.679 45.5699C146.943 45.3935 147.12 45.3052 147.296 45.217L147.296 45.2169C154.704 41.6864 157.878 33.831 156.467 26.0638C154.88 17.4141 147.737 12.2066 139.801 12.03C135.217 11.9292 130.604 11.9436 125.979 11.958C122.507 11.9688 119.029 11.9796 115.55 11.9418C114.757 11.9418 114.492 12.2066 114.492 13.0892V64.3699C114.492 64.5465 114.514 64.723 114.536 64.8995C114.558 65.076 114.58 65.2526 114.58 65.4291C115.38 65.4291 116.171 65.4391 116.954 65.449H116.954H116.954H116.954H116.955C118.503 65.4685 120.025 65.4877 121.547 65.4291C121.723 65.4291 122.076 65.076 122.164 64.8113C122.222 64.6373 122.204 64.4253 122.184 64.2002C122.174 64.0827 122.164 63.9615 122.164 63.8404V26.5052C122.164 26.0638 122.164 25.6225 122.252 24.9164C122.459 25.2266 122.605 25.4157 122.726 25.5723C122.812 25.6831 122.885 25.7776 122.958 25.8873C124.85 28.5303 126.764 31.1952 128.679 33.8602L128.683 33.8653L128.69 33.8751C130.608 36.5451 132.526 39.215 134.422 41.8629C139.889 49.5418 145.356 57.1324 150.824 64.723C151.088 65.076 151.529 65.4291 151.882 65.4291ZM54.6155 38.5973C54.7037 49.5419 63.2575 57.8386 73.3104 58.1916C84.4215 58.5447 93.0635 49.6301 93.3281 39.2151C93.5926 28.3588 85.0388 19.0912 74.0159 19.0029C63.4339 18.9146 54.7037 27.7409 54.6155 38.5973ZM74.0159 11.2358C88.7425 11.0592 101.176 23.416 101.088 38.5973C101.088 53.6902 88.8307 66.047 73.9277 65.9588C58.9365 65.9588 46.8554 53.5137 46.8554 38.5973C46.9436 23.5926 59.1129 11.0592 74.0159 11.2358ZM0.911843 65.3408H8.5838V64.0169V48.0413C8.5838 47.2469 8.84835 46.9821 9.642 46.9821C10.7035 46.9821 11.7551 46.992 12.8035 47.0018H12.8037C14.8906 47.0214 16.9646 47.0409 19.0776 46.9821C20.4886 46.9821 21.9877 46.8939 23.3986 46.6291C33.2752 44.7756 38.7425 36.1258 37.2434 26.5934C35.9207 17.6788 28.866 12.5596 21.0177 12.1183C16.517 11.8714 12.0163 11.9266 7.48554 11.9822L7.48551 11.9822C5.53582 12.006 3.58056 12.03 1.61731 12.03C0.911843 12.03 0.735476 12.2948 0.735476 13.0009V18.2084C0.735476 18.4319 0.731236 18.6243 0.727587 18.7898C0.716792 19.2795 0.711172 19.5345 0.835804 19.6659C0.971162 19.8087 1.26015 19.8059 1.863 19.8H1.86308C1.9996 19.7987 2.15221 19.7972 2.32278 19.7972C4.08645 19.7972 5.85011 19.7873 7.61378 19.7775C11.1411 19.7579 14.6685 19.7383 18.1958 19.7972C19.8713 19.7972 21.6349 19.9737 23.2222 20.5033C30.8942 22.9746 31.3351 32.507 26.8378 36.5671C24.8095 38.4206 22.3404 39.3033 19.6949 39.3033H1.97004H0.911843V65.3408ZM179.571 65.4291V64.0169V21.2094C179.571 20.5031 179.571 20.15 179.395 19.9735C179.218 19.7972 178.866 19.7972 178.16 19.7972H165.727C164.933 19.7972 164.668 19.6206 164.668 18.738C164.757 16.8845 164.757 15.031 164.668 13.1774C164.668 12.2948 164.933 12.03 165.815 12.03H187.772H201C201.882 12.03 202.146 12.2948 202.146 13.1774C202.058 15.031 202.058 16.9728 202.146 18.8263C202.146 19.6206 201.882 19.7972 201.176 19.7972H188.654C187.949 19.7972 187.596 19.7972 187.42 19.9735C187.243 20.15 187.243 20.5031 187.243 21.2094V63.9286C187.243 64.0498 187.254 64.1605 187.264 64.268C187.283 64.4738 187.301 64.6676 187.243 64.8995C187.155 65.1643 186.891 65.5174 186.626 65.5174C184.422 65.4291 182.129 65.4291 179.571 65.4291ZM300.735 65.3409V57.5738H299.589H276.22C274.81 57.5738 274.81 57.5738 274.81 56.0733V13.0893C274.81 12.2067 274.633 11.9419 273.663 11.9419C271.899 12.0301 270.048 12.0301 268.196 11.9419C267.314 11.8536 267.049 12.2067 267.049 13.0893V64.2818V65.3409H300.735Z" fill="#F31E96"/>
<rect x="319" width="1" height="75" fill="#C4C4C4"/>
<path d="M344.539 38.5089C346.507 38.4612 348.454 38.9155 350.195 39.8283C351.936 40.741 353.411 42.0819 354.481 43.7226C354.831 43.3142 355.146 42.9145 355.496 42.5408C356.046 42.0058 356.704 41.5936 357.427 41.332C358.15 41.0703 358.922 40.9651 359.689 41.0236C360.456 41.082 361.202 41.3027 361.877 41.6707C362.551 42.0388 363.139 42.5458 363.6 43.1577C364.684 44.8548 365.565 46.6715 366.225 48.5712C366.714 49.8669 367.299 51.1245 367.976 52.3337C368.091 52.5833 368.276 52.7948 368.508 52.9431C368.741 53.0913 369.012 53.1702 369.288 53.1702C369.565 53.1702 369.835 53.0913 370.068 52.9431C370.301 52.7948 370.486 52.5833 370.601 52.3337C371.169 51.3146 371.556 50.2067 371.747 49.0578C371.995 47.4201 372.522 45.8361 373.305 44.3743C374.41 42.4365 376.054 40.8557 378.04 39.821C379.738 38.9066 381.648 38.4483 383.579 38.4916V42.0976C378.889 42.3149 375.974 45.947 376.079 49.1882C376.184 52.4293 379.081 55.7747 383.579 55.9311V59.4069C380.858 59.9804 376.009 57.8775 373.83 54.4278C373.384 55.1805 372.754 55.8097 371.998 56.2576C371.243 56.7055 370.386 56.9578 369.507 56.9912C366.295 57.2258 364.606 55.627 363.574 53.333C362.646 51.2736 361.92 49.1447 361.088 47.0593C360.906 46.5942 360.671 46.1511 360.388 45.7385C359.627 44.6784 358.323 44.8696 357.439 46.1295C356.623 47.4252 356.122 48.892 355.977 50.4134C355.598 52.6944 354.447 54.7788 352.713 56.3221C351.157 57.8197 349.206 58.85 347.086 59.2939C346.281 59.459 345.432 59.4937 344.522 59.598V55.879C345.53 55.9103 346.533 55.7334 347.469 55.3594C348.404 54.9855 349.251 54.4227 349.956 53.7066C350.715 53.0255 351.299 52.1739 351.658 51.223C352.017 50.2721 352.142 49.2496 352.022 48.241C351.654 45.4865 349.072 42.2975 344.504 42.0629L344.539 38.5089Z" fill="#05FAA8"/>
<path d="M387.378 34.7377V63.3257H340.785V34.7377H387.378ZM391.114 31.036H337.048V67.036H391.114V31.036Z" fill="#05FAA8"/>
<path fill-rule="evenodd" clip-rule="evenodd" d="M488.299 50.8477V38.3872L498.416 50.1525C498.604 50.3716 498.837 50.5473 499.1 50.6674C499.363 50.7875 499.649 50.849 499.939 50.8477C500.172 50.845 500.404 50.8009 500.621 50.7174C501.008 50.5822 501.34 50.326 501.567 49.9875C501.801 49.6571 501.923 49.2616 501.917 48.8578V31.036H497.935V43.4878L487.809 31.7224C487.542 31.4164 487.186 31.1985 486.791 31.0976C486.395 30.9968 485.978 31.0177 485.595 31.1576C485.215 31.3002 484.888 31.5549 484.659 31.8875C484.42 32.2158 484.294 32.612 484.3 33.0171V50.8477H488.299ZM444.481 42.1149C445.387 42.6555 446.426 42.9353 447.483 42.923H453.766C454.029 42.9186 454.289 42.968 454.532 43.0681C454.774 43.1683 454.993 43.3171 455.175 43.5052C455.45 43.7827 455.637 44.1346 455.712 44.5169C455.787 44.8993 455.747 45.2951 455.597 45.6548C455.446 46.0146 455.192 46.3224 454.867 46.5397C454.541 46.757 454.158 46.8742 453.766 46.8767H441.794V50.8477H453.81C454.867 50.86 455.906 50.5802 456.812 50.0396C457.705 49.5161 458.451 48.7781 458.982 47.8933C459.515 46.986 459.796 45.9545 459.796 44.9042C459.796 43.8539 459.515 42.8224 458.982 41.9151C458.454 41.0255 457.708 40.2839 456.812 39.7601C455.906 39.2195 454.867 38.9397 453.81 38.952H447.483C447.21 38.9699 446.937 38.9321 446.679 38.8409C446.422 38.7497 446.187 38.607 445.987 38.4217C445.788 38.2364 445.629 38.0123 445.52 37.7635C445.411 37.5147 445.355 37.2464 445.355 36.9752C445.355 36.7039 445.411 36.4356 445.52 36.1868C445.629 35.938 445.788 35.714 445.987 35.5286C446.187 35.3433 446.422 35.2006 446.679 35.1094C446.937 35.0182 447.21 34.9804 447.483 34.9983H459.122V31.036H447.483C446.427 31.0211 445.387 31.2979 444.481 31.8354C443.585 32.3592 442.838 33.1008 442.31 33.9904C441.778 34.8977 441.497 35.9292 441.497 36.9795C441.497 38.0298 441.778 39.0613 442.31 39.9686C442.839 40.855 443.586 41.5935 444.481 42.1149ZM401.607 50.8478C401.076 50.8478 400.566 50.6381 400.19 50.265C399.815 49.8918 399.603 49.3856 399.603 48.8579V33.0172C399.606 32.4909 399.818 31.9871 400.193 31.6158C400.569 31.2445 401.077 31.036 401.607 31.036H410.91C411.969 31.0222 413.011 31.2989 413.921 31.8354C414.818 32.3571 415.566 33.0992 416.091 33.9904C416.636 34.8897 416.917 35.9217 416.905 36.9709C416.917 38.4406 416.367 39.86 415.365 40.9419C415.855 41.4651 416.24 42.0753 416.502 42.7406C416.774 43.4297 416.911 44.1641 416.905 44.9042C416.916 45.956 416.634 46.9903 416.091 47.8934C415.562 48.7798 414.816 49.5183 413.921 50.0397C413.011 50.5788 411.97 50.8585 410.91 50.8478H401.607ZM403.603 34.9984V38.952H410.91C411.172 38.9566 411.432 38.9081 411.674 38.8095C411.917 38.7109 412.136 38.5642 412.319 38.3785C412.505 38.1945 412.653 37.9758 412.754 37.7349C412.854 37.4941 412.906 37.236 412.906 36.9752C412.906 36.7145 412.854 36.4563 412.754 36.2154C412.653 35.9746 412.505 35.7559 412.319 35.5719C412.136 35.3862 411.917 35.2396 411.674 35.1409C411.432 35.0423 411.172 34.9938 410.91 34.9984H403.603ZM403.603 42.9231V46.8767H410.91C411.172 46.8813 411.432 46.8328 411.674 46.7342C411.917 46.6356 412.136 46.4889 412.319 46.3032C412.598 46.0262 412.787 45.6735 412.864 45.2897C412.94 44.9059 412.901 44.5081 412.75 44.1466C412.599 43.785 412.344 43.4759 412.017 43.2582C411.689 43.0404 411.304 42.9238 410.91 42.9231H403.603ZM425.683 50.8478C424.623 50.8585 423.582 50.5788 422.672 50.0397C421.783 49.5135 421.04 48.7759 420.511 47.8934C419.968 46.9903 419.686 45.956 419.697 44.9042V36.9709C419.684 35.9217 419.966 34.8897 420.511 33.9904C421.038 33.1036 421.781 32.3625 422.672 31.8354C423.582 31.2989 424.624 31.0222 425.683 31.036H432.684C433.742 31.0222 434.784 31.2989 435.694 31.8354C436.592 32.3571 437.339 33.0992 437.865 33.9904C438.409 34.8897 438.691 35.9217 438.679 36.9709V44.8695C438.689 45.9212 438.408 46.9555 437.865 47.8586C437.336 48.745 436.589 49.4835 435.694 50.0049C434.785 50.5441 433.743 50.8237 432.684 50.813L425.683 50.8478ZM423.696 36.9448V44.8695C423.694 45.1292 423.744 45.3867 423.843 45.627C423.942 45.8674 424.088 46.0858 424.273 46.2694C424.458 46.453 424.678 46.5982 424.92 46.6965C425.162 46.7948 425.421 46.8443 425.683 46.842H432.684C432.946 46.8465 433.206 46.798 433.448 46.6994C433.69 46.6008 433.91 46.4541 434.093 46.2685C434.283 46.0882 434.433 45.8708 434.534 45.63C434.635 45.3892 434.684 45.1303 434.679 44.8695V36.9361C434.679 36.6763 434.628 36.4191 434.527 36.1792C434.427 35.9394 434.28 35.7215 434.094 35.5383C433.909 35.355 433.689 35.2099 433.447 35.1113C433.205 35.0127 432.945 34.9625 432.684 34.9636H425.683C425.421 34.9613 425.162 35.0107 424.92 35.109C424.678 35.2073 424.458 35.3525 424.273 35.5362C424.088 35.7198 423.942 35.9382 423.843 36.1785C423.744 36.4189 423.694 36.6764 423.696 36.9361V36.9448ZM468.486 50.8478C467.43 50.8587 466.391 50.579 465.484 50.0397C464.593 49.5138 463.847 48.7763 463.314 47.8934C462.777 46.988 462.499 45.9547 462.509 44.9043V36.9709C462.498 35.923 462.776 34.8922 463.314 33.9904C463.845 33.1032 464.591 32.3623 465.484 31.8355C466.391 31.2988 467.43 31.0221 468.486 31.036H475.487C476.546 31.0232 477.587 31.2997 478.498 31.8355C479.391 32.3623 480.138 33.1032 480.668 33.9904C481.213 34.8897 481.494 35.9217 481.482 36.9709V44.8695C481.493 45.9212 481.211 46.9555 480.668 47.8586C480.135 48.7415 479.389 49.4791 478.498 50.0049C477.588 50.5432 476.546 50.8228 475.487 50.813L468.486 50.8478ZM466.5 36.9448V44.8695C466.497 45.13 466.547 45.3883 466.648 45.6288C466.749 45.8693 466.898 46.087 467.086 46.2685C467.267 46.4543 467.485 46.6012 467.726 46.6998C467.967 46.7985 468.226 46.8469 468.486 46.842H475.487C475.749 46.845 476.008 46.7958 476.25 46.6973C476.493 46.5988 476.712 46.4529 476.896 46.2685C477.086 46.0882 477.236 45.8708 477.337 45.63C477.438 45.3892 477.488 45.1303 477.483 44.8695V36.9361C477.487 36.6754 477.437 36.4166 477.337 36.1759C477.236 35.9351 477.086 35.7177 476.896 35.5371C476.712 35.3527 476.493 35.2068 476.25 35.1083C476.008 35.0098 475.749 34.9606 475.487 34.9636H468.486C468.226 34.9587 467.967 35.0071 467.726 35.1058C467.485 35.2044 467.267 35.3513 467.086 35.5371C466.9 35.7259 466.755 35.9506 466.66 36.1972C466.566 36.4438 466.523 36.7071 466.535 36.9709L466.5 36.9448ZM401.424 64.0381V67.0359H399.604V60.7362C399.599 60.2594 399.726 59.7906 399.971 59.3806C400.213 58.9785 400.553 58.6437 400.96 58.4074C401.37 58.1656 401.839 58.0394 402.316 58.0425H405.336C405.819 58.0363 406.294 58.1625 406.71 58.4074C407.114 58.6439 407.452 58.9789 407.69 59.3806C407.935 59.7906 408.062 60.2594 408.057 60.7362V61.3444C408.06 61.8182 407.933 62.2838 407.69 62.6913C407.452 63.0955 407.115 63.4333 406.71 63.6732C406.294 63.918 405.819 64.0443 405.336 64.0381H401.424ZM401.424 60.7362V62.2481H405.336C405.456 62.2511 405.575 62.2296 405.687 62.1847C405.798 62.1399 405.899 62.0727 405.983 61.9874C406.067 61.9059 406.133 61.8085 406.179 61.7011C406.224 61.5936 406.247 61.4782 406.246 61.3618V60.7535C406.248 60.6356 406.225 60.5186 406.18 60.4096C406.135 60.3005 406.068 60.2017 405.983 60.1192C405.899 60.0339 405.798 59.9668 405.687 59.9219C405.575 59.8771 405.456 59.8555 405.336 59.8585H402.316C402.084 59.8585 401.862 59.9501 401.698 60.113C401.533 60.276 401.441 60.497 401.441 60.7275L401.424 60.7362ZM415.102 67.036V64.0381H418.156L419.627 67.036H421.64L420.073 63.8296C420.564 63.6264 420.983 63.285 421.281 62.8477C421.591 62.4077 421.754 61.8815 421.745 61.3444V60.7362C421.749 60.2595 421.622 59.7906 421.377 59.3806C421.138 58.9766 420.797 58.6412 420.388 58.4074C419.975 58.1641 419.503 58.0379 419.023 58.0425H416.004C415.524 58.0379 415.051 58.1641 414.638 58.4074C414.236 58.6466 413.899 58.9809 413.658 59.3806C413.413 59.7906 413.286 60.2595 413.291 60.7362V67.036H415.102ZM415.102 62.2481V60.7362C415.096 60.5077 415.181 60.286 415.339 60.1192C415.422 60.035 415.521 59.9685 415.631 59.9237C415.741 59.8788 415.859 59.8567 415.977 59.8586H419.023C419.142 59.8567 419.259 59.8788 419.369 59.9237C419.479 59.9685 419.579 60.035 419.662 60.1192C419.748 60.201 419.817 60.2995 419.863 60.4086C419.91 60.5176 419.934 60.635 419.933 60.7536V61.3618C419.933 61.4789 419.908 61.5946 419.862 61.7021C419.815 61.8096 419.747 61.9067 419.662 61.9875C419.579 62.0717 419.479 62.1382 419.369 62.183C419.259 62.2278 419.142 62.25 419.023 62.2481H415.102ZM429.691 67.0361C429.211 67.0407 428.739 66.9144 428.326 66.6711C427.928 66.4398 427.594 66.1145 427.354 65.724C427.109 65.314 426.982 64.8452 426.987 64.3684V60.771C426.982 60.2943 427.109 59.8255 427.354 59.4155C427.593 59.0137 427.93 58.6788 428.334 58.4423C428.747 58.199 429.22 58.0728 429.7 58.0774H432.868C433.351 58.0712 433.826 58.1974 434.242 58.4423C434.646 58.6788 434.984 59.0137 435.222 59.4155C435.467 59.8255 435.594 60.2943 435.589 60.771V64.3684C435.597 64.8443 435.473 65.3131 435.231 65.724C434.993 66.1282 434.655 66.466 434.25 66.7059C433.835 66.9507 433.36 67.077 432.877 67.0708L429.691 67.0361ZM428.816 60.7363V64.3337C428.814 64.4516 428.836 64.5686 428.881 64.6776C428.927 64.7867 428.993 64.8855 429.078 64.968C429.161 65.0522 429.261 65.1188 429.371 65.1636C429.481 65.2084 429.598 65.2305 429.717 65.2287H432.885C433.005 65.2317 433.125 65.2102 433.236 65.1653C433.348 65.1205 433.449 65.0533 433.533 64.968C433.618 64.8855 433.685 64.7867 433.73 64.6776C433.775 64.5686 433.797 64.4516 433.795 64.3337V60.7363C433.797 60.6184 433.775 60.5014 433.73 60.3923C433.685 60.2833 433.618 60.1845 433.533 60.102C433.449 60.0167 433.348 59.9495 433.236 59.9047C433.125 59.8598 433.005 59.8383 432.885 59.8413H429.717C429.598 59.8394 429.481 59.8616 429.371 59.9064C429.261 59.9512 429.161 60.0178 429.078 60.102C428.989 60.1822 428.917 60.28 428.867 60.3892C428.818 60.4983 428.791 60.6165 428.79 60.7363H428.816ZM443.912 59.8412V67.036H445.732V59.8412H448.813V58.0425H440.814V59.8412H443.912ZM456.759 67.036C456.279 67.0406 455.807 66.9143 455.394 66.671C454.989 66.4311 454.652 66.0933 454.414 65.6891C454.169 65.2791 454.042 64.8103 454.046 64.3336V60.7362C454.042 60.2595 454.169 59.7906 454.414 59.3806C454.652 58.9789 454.989 58.6439 455.394 58.4074C455.807 58.1641 456.279 58.0379 456.759 58.0425H459.927C460.407 58.0379 460.88 58.1641 461.292 58.4074C461.702 58.6412 462.042 58.9766 462.281 59.3806C462.526 59.7906 462.654 60.2595 462.649 60.7362V64.3336C462.654 64.8103 462.526 65.2791 462.281 65.6891C462.043 66.0956 461.702 66.4339 461.292 66.671C460.88 66.9143 460.407 67.0406 459.927 67.036H456.759ZM455.884 60.7362V64.3336C455.884 64.564 455.976 64.785 456.14 64.948C456.305 65.111 456.527 65.2025 456.759 65.2025H459.927C460.046 65.2044 460.164 65.1822 460.274 65.1374C460.383 65.0926 460.483 65.026 460.566 64.9418C460.652 64.8601 460.721 64.7616 460.768 64.6525C460.814 64.5434 460.838 64.426 460.837 64.3075V60.7101C460.838 60.5916 460.814 60.4742 460.768 60.3651C460.721 60.256 460.652 60.1576 460.566 60.0758C460.483 59.9916 460.383 59.925 460.274 59.8802C460.164 59.8354 460.046 59.8133 459.927 59.8151H456.759C456.527 59.8151 456.305 59.9066 456.14 60.0696C455.976 60.2326 455.884 60.4536 455.884 60.684V60.7362ZM470.118 66.7645C470.558 66.9448 471.029 67.0371 471.505 67.036H475.426V65.2286H471.505C471.268 65.2323 471.032 65.188 470.813 65.0983C470.593 65.0087 470.394 64.8756 470.228 64.7072C470.056 64.5429 469.921 64.3457 469.829 64.1276C469.737 63.9094 469.691 63.675 469.694 63.4386V61.6399C469.696 61.1635 469.888 60.7074 470.227 60.3705C470.566 60.0337 471.026 59.8435 471.505 59.8412H475.426V58.0425H471.505C471.029 58.0413 470.558 58.1336 470.118 58.314C469.677 58.4944 469.278 58.7593 468.941 59.0936C468.604 59.4279 468.337 59.8249 468.156 60.2619C467.974 60.6988 467.881 61.1671 467.882 61.6399V63.4386C467.881 63.9113 467.974 64.3796 468.156 64.8166C468.337 65.2536 468.604 65.6506 468.941 65.9849C469.278 66.3191 469.677 66.5841 470.118 66.7645ZM483.364 67.036C482.883 67.0406 482.411 66.9143 481.998 66.671C481.593 66.4311 481.256 66.0933 481.018 65.6891C480.773 65.2791 480.646 64.8103 480.651 64.3336V60.7362C480.646 60.2595 480.773 59.7906 481.018 59.3806C481.256 58.9789 481.594 58.6439 481.998 58.4074C482.411 58.1641 482.883 58.0379 483.364 58.0425H486.54C487.021 58.0379 487.493 58.1641 487.906 58.4074C488.31 58.6439 488.648 58.9789 488.886 59.3806C489.131 59.7906 489.258 60.2595 489.253 60.7362V64.3336C489.258 64.8103 489.131 65.2791 488.886 65.6891C488.648 66.0933 488.311 66.4311 487.906 66.671C487.493 66.9143 487.021 67.0406 486.54 67.036H483.364ZM482.488 60.7362V64.3336C482.487 64.4514 482.509 64.5685 482.554 64.6775C482.599 64.7866 482.666 64.8854 482.751 64.9679C482.834 65.0521 482.934 65.1186 483.043 65.1635C483.153 65.2083 483.271 65.2304 483.39 65.2286H486.567C486.685 65.2304 486.803 65.2083 486.913 65.1635C487.023 65.1186 487.122 65.0521 487.206 64.9679C487.29 64.8854 487.357 64.7866 487.403 64.6775C487.448 64.5685 487.47 64.4514 487.468 64.3336V60.7362C487.47 60.6183 487.448 60.5013 487.403 60.3922C487.357 60.2832 487.29 60.1844 487.206 60.1019C487.122 60.0176 487.023 59.9511 486.913 59.9063C486.803 59.8615 486.685 59.8393 486.567 59.8412H483.364C483.245 59.8393 483.127 59.8615 483.017 59.9063C482.907 59.9511 482.808 60.0176 482.725 60.1019C482.645 60.1865 482.582 60.2863 482.542 60.3952C482.501 60.5042 482.483 60.6201 482.488 60.7362ZM496.307 65.2286V58.0425L494.531 58.0772V66.167C494.543 66.3934 494.639 66.6073 494.801 66.7676C494.962 66.9279 495.178 67.0235 495.406 67.036H502.048V65.2286H496.307Z" fill="#22253A"/>
<path d="M341.267 22.172C340.417 22.172 339.669 22.0077 339.023 21.679C338.377 21.339 337.878 20.8687 337.527 20.268C337.176 19.6673 337 18.9703 337 18.177V13.978C337 13.1847 337.176 12.4877 337.527 11.887C337.878 11.2863 338.377 10.8217 339.023 10.493C339.669 10.1643 340.417 10 341.267 10C342.106 10 342.848 10.1587 343.494 10.476C344.14 10.7933 344.639 11.241 344.99 11.819C345.341 12.397 345.517 13.0657 345.517 13.825C345.517 13.8817 345.494 13.9327 345.449 13.978C345.415 14.012 345.37 14.029 345.313 14.029L343.749 14.114C343.613 14.114 343.545 14.0517 343.545 13.927C343.545 13.2583 343.335 12.72 342.916 12.312C342.508 11.904 341.958 11.7 341.267 11.7C340.576 11.7 340.02 11.904 339.601 12.312C339.182 12.72 338.972 13.2583 338.972 13.927V18.262C338.972 18.9193 339.182 19.452 339.601 19.86C340.02 20.268 340.576 20.472 341.267 20.472C341.958 20.472 342.508 20.2737 342.916 19.877C343.335 19.469 343.545 18.9307 343.545 18.262C343.545 18.1373 343.613 18.075 343.749 18.075L345.313 18.143C345.37 18.143 345.415 18.16 345.449 18.194C345.494 18.228 345.517 18.2677 345.517 18.313C345.517 19.0837 345.341 19.7637 344.99 20.353C344.639 20.931 344.14 21.3787 343.494 21.696C342.848 22.0133 342.106 22.172 341.267 22.172Z" fill="#22253A"/>
<path d="M356.081 22.206C355.231 22.206 354.477 22.036 353.82 21.696C353.162 21.3447 352.652 20.8517 352.29 20.217C351.938 19.5823 351.763 18.8513 351.763 18.024V14.148C351.763 13.332 351.944 12.6123 352.307 11.989C352.669 11.3543 353.174 10.867 353.82 10.527C354.477 10.1757 355.231 10 356.081 10C356.942 10 357.696 10.1757 358.342 10.527C358.999 10.867 359.509 11.3543 359.872 11.989C360.234 12.6123 360.416 13.332 360.416 14.148V18.024C360.416 18.8513 360.234 19.5823 359.872 20.217C359.509 20.8517 358.999 21.3447 358.342 21.696C357.696 22.036 356.942 22.206 356.081 22.206ZM356.081 20.506C356.795 20.506 357.367 20.285 357.798 19.843C358.228 19.401 358.444 18.8173 358.444 18.092V14.131C358.444 13.3943 358.228 12.805 357.798 12.363C357.367 11.921 356.795 11.7 356.081 11.7C355.378 11.7 354.811 11.921 354.381 12.363C353.95 12.805 353.735 13.3943 353.735 14.131V18.092C353.735 18.8173 353.95 19.401 354.381 19.843C354.811 20.285 355.378 20.506 356.081 20.506Z" fill="#22253A"/>
<path d="M373.949 10.34C373.949 10.2833 373.966 10.238 374 10.204C374.046 10.1587 374.097 10.136 374.153 10.136H375.717C375.774 10.136 375.819 10.1587 375.853 10.204C375.899 10.238 375.921 10.2833 375.921 10.34V21.832C375.921 21.8887 375.899 21.9397 375.853 21.985C375.819 22.019 375.774 22.036 375.717 22.036H374.204C374.091 22.036 374.012 21.9907 373.966 21.9L369.07 13.876C369.048 13.842 369.025 13.8307 369.002 13.842C368.98 13.842 368.968 13.8647 368.968 13.91L369.002 21.832C369.002 21.8887 368.98 21.9397 368.934 21.985C368.9 22.019 368.855 22.036 368.798 22.036H367.234C367.178 22.036 367.127 22.019 367.081 21.985C367.047 21.9397 367.03 21.8887 367.03 21.832V10.34C367.03 10.2833 367.047 10.238 367.081 10.204C367.127 10.1587 367.178 10.136 367.234 10.136H368.747C368.861 10.136 368.94 10.1813 368.985 10.272L373.864 18.296C373.887 18.33 373.91 18.347 373.932 18.347C373.955 18.3357 373.966 18.3073 373.966 18.262L373.949 10.34Z" fill="#22253A"/>
<path d="M389.592 10.34C389.592 10.2833 389.609 10.238 389.643 10.204C389.688 10.1587 389.739 10.136 389.796 10.136H391.36C391.417 10.136 391.462 10.1587 391.496 10.204C391.541 10.238 391.564 10.2833 391.564 10.34V21.832C391.564 21.8887 391.541 21.9397 391.496 21.985C391.462 22.019 391.417 22.036 391.36 22.036H389.847C389.734 22.036 389.654 21.9907 389.609 21.9L384.713 13.876C384.69 13.842 384.668 13.8307 384.645 13.842C384.622 13.842 384.611 13.8647 384.611 13.91L384.645 21.832C384.645 21.8887 384.622 21.9397 384.577 21.985C384.543 22.019 384.498 22.036 384.441 22.036H382.877C382.82 22.036 382.769 22.019 382.724 21.985C382.69 21.9397 382.673 21.8887 382.673 21.832V10.34C382.673 10.2833 382.69 10.238 382.724 10.204C382.769 10.1587 382.82 10.136 382.877 10.136H384.39C384.503 10.136 384.583 10.1813 384.628 10.272L389.507 18.296C389.53 18.33 389.552 18.347 389.575 18.347C389.598 18.3357 389.609 18.3073 389.609 18.262L389.592 10.34Z" fill="#22253A"/>
<path d="M406.374 11.632C406.374 11.6887 406.351 11.7397 406.306 11.785C406.272 11.819 406.226 11.836 406.17 11.836H400.373C400.316 11.836 400.288 11.8643 400.288 11.921V15.1C400.288 15.1567 400.316 15.185 400.373 15.185H404.266C404.322 15.185 404.368 15.2077 404.402 15.253C404.447 15.287 404.47 15.3323 404.47 15.389V16.681C404.47 16.7377 404.447 16.7887 404.402 16.834C404.368 16.868 404.322 16.885 404.266 16.885H400.373C400.316 16.885 400.288 16.9133 400.288 16.97V20.251C400.288 20.3077 400.316 20.336 400.373 20.336H406.17C406.226 20.336 406.272 20.3587 406.306 20.404C406.351 20.438 406.374 20.4833 406.374 20.54V21.832C406.374 21.8887 406.351 21.9397 406.306 21.985C406.272 22.019 406.226 22.036 406.17 22.036H398.52C398.463 22.036 398.412 22.019 398.367 21.985C398.333 21.9397 398.316 21.8887 398.316 21.832V10.34C398.316 10.2833 398.333 10.238 398.367 10.204C398.412 10.1587 398.463 10.136 398.52 10.136H406.17C406.226 10.136 406.272 10.1587 406.306 10.204C406.351 10.238 406.374 10.2833 406.374 10.34V11.632Z" fill="#22253A"/>
<path d="M416.774 22.172C415.924 22.172 415.176 22.0077 414.53 21.679C413.884 21.339 413.386 20.8687 413.034 20.268C412.683 19.6673 412.507 18.9703 412.507 18.177V13.978C412.507 13.1847 412.683 12.4877 413.034 11.887C413.386 11.2863 413.884 10.8217 414.53 10.493C415.176 10.1643 415.924 10 416.774 10C417.613 10 418.355 10.1587 419.001 10.476C419.647 10.7933 420.146 11.241 420.497 11.819C420.849 12.397 421.024 13.0657 421.024 13.825C421.024 13.8817 421.002 13.9327 420.956 13.978C420.922 14.012 420.877 14.029 420.82 14.029L419.256 14.114C419.12 14.114 419.052 14.0517 419.052 13.927C419.052 13.2583 418.843 12.72 418.423 12.312C418.015 11.904 417.466 11.7 416.774 11.7C416.083 11.7 415.528 11.904 415.108 12.312C414.689 12.72 414.479 13.2583 414.479 13.927V18.262C414.479 18.9193 414.689 19.452 415.108 19.86C415.528 20.268 416.083 20.472 416.774 20.472C417.466 20.472 418.015 20.2737 418.423 19.877C418.843 19.469 419.052 18.9307 419.052 18.262C419.052 18.1373 419.12 18.075 419.256 18.075L420.82 18.143C420.877 18.143 420.922 18.16 420.956 18.194C421.002 18.228 421.024 18.2677 421.024 18.313C421.024 19.0837 420.849 19.7637 420.497 20.353C420.146 20.931 419.647 21.3787 419.001 21.696C418.355 22.0133 417.613 22.172 416.774 22.172Z" fill="#22253A"/>
<path d="M435.246 10.136C435.303 10.136 435.348 10.1587 435.382 10.204C435.428 10.238 435.45 10.2833 435.45 10.34V11.649C435.45 11.7057 435.428 11.7567 435.382 11.802C435.348 11.836 435.303 11.853 435.246 11.853H432.118C432.062 11.853 432.033 11.8813 432.033 11.938V21.832C432.033 21.8887 432.011 21.9397 431.965 21.985C431.931 22.019 431.886 22.036 431.829 22.036H430.265C430.209 22.036 430.158 22.019 430.112 21.985C430.078 21.9397 430.061 21.8887 430.061 21.832V11.938C430.061 11.8813 430.033 11.853 429.976 11.853H426.967C426.911 11.853 426.86 11.836 426.814 11.802C426.78 11.7567 426.763 11.7057 426.763 11.649V10.34C426.763 10.2833 426.78 10.238 426.814 10.204C426.86 10.1587 426.911 10.136 426.967 10.136H435.246Z" fill="#22253A"/>
<path d="M449.749 11.632C449.749 11.6887 449.726 11.7397 449.681 11.785C449.647 11.819 449.602 11.836 449.545 11.836H443.748C443.691 11.836 443.663 11.8643 443.663 11.921V15.1C443.663 15.1567 443.691 15.185 443.748 15.185H447.641C447.698 15.185 447.743 15.2077 447.777 15.253C447.822 15.287 447.845 15.3323 447.845 15.389V16.681C447.845 16.7377 447.822 16.7887 447.777 16.834C447.743 16.868 447.698 16.885 447.641 16.885H443.748C443.691 16.885 443.663 16.9133 443.663 16.97V20.251C443.663 20.3077 443.691 20.336 443.748 20.336H449.545C449.602 20.336 449.647 20.3587 449.681 20.404C449.726 20.438 449.749 20.4833 449.749 20.54V21.832C449.749 21.8887 449.726 21.9397 449.681 21.985C449.647 22.019 449.602 22.036 449.545 22.036H441.895C441.838 22.036 441.787 22.019 441.742 21.985C441.708 21.9397 441.691 21.8887 441.691 21.832V10.34C441.691 10.2833 441.708 10.238 441.742 10.204C441.787 10.1587 441.838 10.136 441.895 10.136H449.545C449.602 10.136 449.647 10.1587 449.681 10.204C449.726 10.238 449.749 10.2833 449.749 10.34V11.632Z" fill="#22253A"/>
<path d="M456.375 22.036C456.319 22.036 456.268 22.019 456.222 21.985C456.188 21.9397 456.171 21.8887 456.171 21.832V10.34C456.171 10.2833 456.188 10.238 456.222 10.204C456.268 10.1587 456.319 10.136 456.375 10.136H460.523C461.328 10.136 462.036 10.2777 462.648 10.561C463.26 10.8443 463.731 11.2523 464.059 11.785C464.399 12.3063 464.569 12.9183 464.569 13.621V18.551C464.569 19.2537 464.399 19.8713 464.059 20.404C463.731 20.9253 463.26 21.3277 462.648 21.611C462.036 21.8943 461.328 22.036 460.523 22.036H456.375ZM458.143 20.251C458.143 20.3077 458.172 20.336 458.228 20.336H460.608C461.209 20.336 461.685 20.149 462.036 19.775C462.399 19.3897 462.586 18.8797 462.597 18.245V13.944C462.597 13.298 462.416 12.788 462.053 12.414C461.691 12.0287 461.203 11.836 460.591 11.836H458.228C458.172 11.836 458.143 11.8643 458.143 11.921V20.251Z" fill="#22253A"/>
<path d="M485.571 15.831C485.503 15.865 485.503 15.899 485.571 15.933C486.727 16.477 487.305 17.412 487.305 18.738C487.305 19.8147 486.942 20.6363 486.217 21.203C485.503 21.7583 484.568 22.036 483.412 22.036H479.128C479.071 22.036 479.02 22.019 478.975 21.985C478.941 21.9397 478.924 21.8887 478.924 21.832V10.34C478.924 10.2833 478.941 10.238 478.975 10.204C479.02 10.1587 479.071 10.136 479.128 10.136H483.276C484.511 10.136 485.463 10.4023 486.132 10.935C486.8 11.4677 487.135 12.2723 487.135 13.349C487.135 14.539 486.613 15.3663 485.571 15.831ZM480.981 11.836C480.924 11.836 480.896 11.8643 480.896 11.921V15.066C480.896 15.1227 480.924 15.151 480.981 15.151H483.276C483.876 15.151 484.347 15.0093 484.687 14.726C485.038 14.4313 485.214 14.029 485.214 13.519C485.214 12.9977 485.038 12.5897 484.687 12.295C484.347 11.989 483.876 11.836 483.276 11.836H480.981ZM483.412 20.319C484.001 20.319 484.466 20.1603 484.806 19.843C485.157 19.5257 485.333 19.095 485.333 18.551C485.333 17.9957 485.157 17.565 484.806 17.259C484.454 16.9417 483.978 16.783 483.378 16.783H480.981C480.924 16.783 480.896 16.8113 480.896 16.868V20.234C480.896 20.2907 480.924 20.319 480.981 20.319H483.412Z" fill="#22253A"/>
<path d="M496.431 22.019C496.374 22.019 496.323 22.002 496.278 21.968C496.244 21.9227 496.227 21.8717 496.227 21.815V17.259C496.227 17.2137 496.221 17.1797 496.21 17.157L492.708 10.374C492.685 10.3287 492.674 10.2947 492.674 10.272C492.674 10.1813 492.736 10.136 492.861 10.136H494.544C494.657 10.136 494.737 10.187 494.782 10.289L497.162 15.032C497.196 15.0773 497.23 15.0773 497.264 15.032L499.661 10.289C499.718 10.187 499.797 10.136 499.899 10.136H501.599C501.678 10.136 501.729 10.1587 501.752 10.204C501.786 10.2493 501.786 10.306 501.752 10.374L498.233 17.157C498.21 17.2023 498.199 17.2363 498.199 17.259V21.815C498.199 21.8717 498.176 21.9227 498.131 21.968C498.097 22.002 498.052 22.019 497.995 22.019H496.431Z" fill="#22253A"/>
</svg>
