<svg xmlns="http://www.w3.org/2000/svg" viewBox="0 0 109.63 85.34"><defs><style>.cls-1{fill:#9594a2;}</style></defs><g id="Layer_2" data-name="Layer 2"><g id="Layer_2-2" data-name="Layer 2"><path class="cls-1" d="M27.56,78.33V70L25,71.09a7.6,7.6,0,0,0-.54,3.47,8.2,8.2,0,0,0,1.76,4.37Zm7.29-17.14a4.56,4.56,0,0,1,2.37,1A3,3,0,0,1,38,65.08a3.13,3.13,0,0,1-1.52,2.06,2.87,2.87,0,0,1-1.7.61v4l1.82,1.58-1.82,1.58v5.41a10.46,10.46,0,0,0,2.79-3.58s.06-.12.18-.43A6.69,6.69,0,0,1,37,80.09a6.94,6.94,0,0,1-3,3.28,8.43,8.43,0,0,1-6.08,1,8.33,8.33,0,0,1-5.65-3.76,9.17,9.17,0,0,1-1.4-5.11c.06-3.71,2.92-6.87,6.2-8.08a4.37,4.37,0,0,1,1.09-.31c-.24.19-.54.37-.91.61a7.26,7.26,0,0,0-2.37,3l6.26-2.61v8.57l-5,2.37A6.84,6.84,0,0,0,30,81.24a6.56,6.56,0,0,0,4.19-.79V74.86l-1.82-1.58,1.82-1.58v-4A29,29,0,0,1,30.9,67c-1.16-.24-4.93-1.27-5.53-1.4a2.45,2.45,0,0,0-1.77.31,1.76,1.76,0,0,0-.54,1.7,1.72,1.72,0,0,0,.54.73,1.21,1.21,0,0,1-.6-.24,2.75,2.75,0,0,1-1.34-2.25,3.76,3.76,0,0,1,1.58-3.28,4.79,4.79,0,0,1,3.34-.79c1.89.24,4.38,1.27,6.63,1.82a3.15,3.15,0,0,0,2.12-.06,1,1,0,0,0,.37-1.4c-.49-.79-1.4-.79-2.19-.91a11.45,11.45,0,0,1,1.34-.06"/><path class="cls-1" d="M64,84.22l3.77-3.34-.18-.18-.91.79L65.14,80V72.61l1.52-1-.12-.18-1.4,1-2.55-2.79-3.65,2.79-2.61-2.67L52.8,72.43l-2.61-2.67-3.77,3.18.12.18,1.22-1L49.46,74V80.6l-.85.73,2.74,3,2.79-2.67L53,80.46v-7.9l.67-.55,1.76,2.19v6.5l-.55.73,2.55,2.73,2.74-2.61-1.09-1v-7.9l.79-.6,2.27,2.12v6.5l-.91.61ZM41.43,81.3l-1.09.91.12.19,1.16-1,2.49,2.8,3.59-3.1-.12-.18-1.1.91L45,80.2V72.86l1.27-1-.18-.18-1.22,1-2.61-3-3.87,3,.49.12,1-.79,1.58,1.76Zm3.2-14.82L41.9,68.85l-2.19-2.31,2.74-2.44Z"/><path class="cls-1" d="M74.41,76.14l-3.22,2.07V71.4Zm-.06-6.56-3.28,1.88-3,1.58v7.9l-1.27.91L67,82l1.15-.91,3.59,3.1,6.2-4.74-.12-.18-3.47,2.61L71.5,79.36v-1l5.65-4Z"/><path class="cls-1" d="M82.13,71.16v4l1.7,1.15a18.31,18.31,0,0,0,4-4.38s-1.33,1.77-3.09,1.22a4,4,0,0,1-2.25-1.88M79.15,81.55a3.61,3.61,0,0,1,3.53-1.64,4.82,4.82,0,0,1,3.1,2.61v-5L84,76.32c-1.58,1.58-4.5,3.83-4.87,5.23m2.13,3.77a2.65,2.65,0,0,1-2.61-2.13c-.43-1.76.85-2.92,2.73-4.8l-2.25-2V72.61s1.64-.79,2.92-1.58l2.61-1.64a3.08,3.08,0,0,0,2.07,1.1c1.7-.12,1.64-1.46,1.58-1.77.31.49,1.1,2-1.94,5.35L88.82,76v4.92a47.5,47.5,0,0,0-5.53,3.34s-1.52-1.82-2.8-1c-.85.67-.42,1.64.79,2.07"/><path class="cls-1" d="M99.84,42.25l4.38-6.14a3.39,3.39,0,0,0,1.58.91,3,3,0,0,0,2.55-.91c-.24,1.64-1.09,3.53-2.86,3.83a4.5,4.5,0,0,1-3-.91l-.3.42,6.08,8.88,1.21-1,.19.19L105.43,51Z"/><path class="cls-1" d="M96.44,34c0-1.33-.79-2.12-1.52-2.06l4.56-3.22V47.05l1.45,1.28,1-.79.18.18-3.83,3.22-2.61-2.37-1,.91-.18-.18,2.07-1.52V34Z"/><path class="cls-1" d="M89.87,38.72l2.37-2.37a2.25,2.25,0,0,0,.61.43,1.75,1.75,0,0,0,1.52.06,2.14,2.14,0,0,0,.79-.61,3.79,3.79,0,0,1-1.94,3.65,3,3,0,0,1-3.53-1v8.44l1.76,1.28,1.28-1,.12.18L89,50.94l-3-2.61-1.09,1-.18-.18L86,47.72V40.49l-1-1.58L84,39.82l-.18-.18,3.76-3.29Z"/><path class="cls-1" d="M75.77,46.38l3.16,2.74V40.73l-3.16-2.8Zm6.75-6.86,1.09-1,.19.18-1.34,1v7.84L79.3,49.36l-2.92,1.7-3.71-3-1,.85-.18-.18,1.28-.85V39.33h-.19l3.22-1.58,2.8-1.58Z"/><path class="cls-1" d="M65.56,39.15a2,2,0,0,1-1.33.61A1.45,1.45,0,0,1,63,39.15v2.49A1.45,1.45,0,0,1,64.23,41a1.85,1.85,0,0,1,1.33.55Zm-.12-5.35-1.52-1.58-.91.67v5.9a2,2,0,0,0,1.4.66,1,1,0,0,0,1-.66ZM63,50.45A2.38,2.38,0,0,0,65,50.09a1.46,1.46,0,0,0,.48-1.7V42.07a1.09,1.09,0,0,0-1-.67,2,2,0,0,0-1.4.67ZM56.33,33.68c0-1.21-.55-1.94-1.34-1.94-1.22,0-1.52,1.64-1.52,1.64A2.9,2.9,0,0,1,54.38,31,3.55,3.55,0,0,1,58,29.79a3.11,3.11,0,0,1,2.61,3.1V50a7.89,7.89,0,0,0,1,.18,5.92,5.92,0,0,1,.85.24V29.85H63v2.8l3.71-3,2.79,2.43L70.85,31l.12.18-1.33,1.15V48.21a3,3,0,0,1-1.28,2.67c-2.25,1.28-5-.18-7.42-.55-1.82-.24-4.61-.6-5.34,1a1.42,1.42,0,0,0,.6,1.88c1.64,1,8.94-1.76,11.43-.67,2.25,1,2.25,2.68,1.94,3.77-.6,2.07-3.34,2.49-3.34,2.49a1.86,1.86,0,0,0,1-2c-.18-.61-.6-.79-2.06-.67-3.1.36-6.87,1.82-9.36.79a3.86,3.86,0,0,1-2.13-3.65c.06-2.19,2.74-3.1,2.74-3.1V42c-.06-.31-1.46-.25-1.83.36-.48.91.61,1.34.61,1.34A1.93,1.93,0,0,1,53.59,43a2.51,2.51,0,0,1-.12-3.1,3.61,3.61,0,0,1,3-1.4Z"/><path class="cls-1" d="M33.47,51.06l-3-2.43-1.33.91L29,49.36l1.33-1V41.52c.06-2.8-2.67-2.13-2.49-5.1a3.51,3.51,0,0,1,2.07-2.62,3.68,3.68,0,0,1,1.46-.36s-1.28.73-1,1.82c.49,1.7,3.41,1.82,3.47,4.07v7.78l1.88,1.7.55-.42V39.94l-.85-1.15,3-2.62,2.79,2.37L40,39.64v7.47l2.79,2.07.49-.31V39.94L42.1,38.85l3-2.68L48,38.42l1.15-1,.13.18-2.56,2.19v7.29L40.22,51l-3.34-2.49Z"/><path class="cls-1" d="M24.84,42.8l-3.16,2.06v-6.8Zm-.12-6.57-3.28,1.89L18.58,39.7v7.9l-1.15.91.18.18,1.16-.91,3.34,3.1,6.2-4.74L28.19,46l-3.47,2.61L21.93,46v-1l5.65-4Z"/><path class="cls-1" d="M4.42,53.25c-1.58-.18-2.25-1.09-2.25-1.88a1.7,1.7,0,0,1,1.46-1.52,3.2,3.2,0,0,1,2.8,1.27l3.71-3.95L10,47,9,48.08a6.08,6.08,0,0,0-3.71-2V34l9.42,17a1.22,1.22,0,0,0,.67.18c.37,0,.25-.24.25-.24V33.8a3.79,3.79,0,0,0,2.43-1A3.53,3.53,0,0,0,19,28.7,2,2,0,0,1,17,30.46a3.38,3.38,0,0,1-2.43-1.09L10.74,33.5l.19.18,1-1.15a4.13,4.13,0,0,0,3,1.33v9.91L8.07,31.19a3.72,3.72,0,0,0-3.16-2A3.4,3.4,0,0,0,1.69,32a4,4,0,0,0,0,1.82S1.93,32.22,3,32.22s1.22.49,1.64,1.1v4c-1,.06-3.28.18-3.46,2.73A2.81,2.81,0,0,0,2.3,42.31a2.44,2.44,0,0,0,1.21.43A1.14,1.14,0,0,1,3,41.46c.25-.73,1.64-.85,1.71-.55V46a4.56,4.56,0,0,0-4.2,2.13,3.43,3.43,0,0,0,.06,3.58,3.73,3.73,0,0,0,3.89,1.52"/><path class="cls-1" d="M40.32,17.14V8.81l-2.74,1.1A7.54,7.54,0,0,0,37,13.37a8.23,8.23,0,0,0,1.76,4.38ZM47.67,0A4.76,4.76,0,0,1,50,1a3,3,0,0,1,.73,2.92A3.13,3.13,0,0,1,49.25,6a4.05,4.05,0,0,1-1.7.73v4l1.88,1.46-1.88,1.7v5.47a11.93,11.93,0,0,0,2.8-3.77s.06-.12.18-.43a6.81,6.81,0,0,1-.73,3.77,6.89,6.89,0,0,1-3,3.28,8.48,8.48,0,0,1-6.08,1A8.37,8.37,0,0,1,35,19.45a9.25,9.25,0,0,1-1.4-5.11c.06-3.7,2.92-6.86,6.2-8.08a4.84,4.84,0,0,1,1.1-.3c-.25.18-.55.36-.92.6a7.26,7.26,0,0,0-2.37,3L44,6.87v8.57l-5,2.49a6.94,6.94,0,0,0,3.89,2.13,7.43,7.43,0,0,0,4.25-.67V13.8l-1.88-1.64,1.88-1.46v-4a29.72,29.72,0,0,1-3.34-.79c-1.15-.25-4.92-1.28-5.53-1.4a2.46,2.46,0,0,0-1.76.3,1.76,1.76,0,0,0-.55,1.7,1.73,1.73,0,0,0,.55.73A1.26,1.26,0,0,1,35.82,7a2.75,2.75,0,0,1-1.34-2.25,3.79,3.79,0,0,1,1.58-3.28A4.87,4.87,0,0,1,39.41.67C41.29.91,43.78,1.94,46,2.49a3.18,3.18,0,0,0,2.13-.06A1,1,0,0,0,48.52,1C48,.24,47.12.24,46.33.12A6.09,6.09,0,0,1,47.67,0"/><path class="cls-1" d="M56,26.13a6,6,0,0,0,4-.54c1.94-.91,2.67-2.92,2.67-4.93l.06-2.85V11.49L64,10.58l-.12-.19-1.22.91L60,8.27l-4,3V1.15L51.93,4.5c.18.12,1.09.24,1.09,1.09V19.75l-2.13,1.34.12.18.92-.67,2.55,2.31,4-3.1-.12-.18-1,.73-1.34-.91v-7.9l1.58-1,2.19,2.24v6.81a8.32,8.32,0,0,1-1.46,5.05A3.75,3.75,0,0,1,56,26.13"/><path class="cls-1" d="M72.41,15,69.49,17V10.21Zm-.12-6.56-3.23,1.88-3,1.58v7.9l-1.16.91.18.19,1.16-.92L69.79,23,76,18.29l-.12-.18-3.46,2.61-2.92-2.49v-1l5.65-4Z"/></g></g></svg>