<svg xmlns="http://www.w3.org/2000/svg" viewBox="0 0 143.78 28.11"><defs><style>.cls-1{fill:#9594a2;}</style></defs><g id="Layer_2" data-name="Layer 2"><g id="Layer_2-2" data-name="Layer 2"><path class="cls-1" d="M12.64,14.05A1.37,1.37,0,1,0,14,12.69a1.38,1.38,0,0,0-1.37,1.36m11.45-1.34a1.37,1.37,0,1,0,1.36,1.37,1.35,1.35,0,0,0-1.36-1.37m0,10.25a1.37,1.37,0,1,0,1.36,1.37A1.35,1.35,0,0,0,24.09,23"/><path class="cls-1" d="M27,1.44A3.59,3.59,0,0,0,21.74,1l-.17.16-.33.27a3.52,3.52,0,0,1-4.67-.27V1.08A3.79,3.79,0,0,0,15,.14c-.09,0-.26-.09-.33-.09H13.26A.32.32,0,0,0,13,.14h-.17c-.09,0-.16.1-.26.1a.1.1,0,0,0-.1.1c-.09,0-.16.09-.26.09a.09.09,0,0,0-.09.1,1.91,1.91,0,0,1-.27.16.09.09,0,0,0-.09.1c-.1.1-.17.1-.27.17l-.09.09-.17.17-.34.26a3.37,3.37,0,0,1-4.57-.26.09.09,0,0,1-.09-.09L6.06,1A3.32,3.32,0,0,0,4.29.12H2.75c0,.1-.09.1-.16.17h0A3.33,3.33,0,0,0,1.36,1l-.09.09L1,1.32a3.5,3.5,0,0,0-.67,1.1c0,.09-.1.17-.1.26s-.1.17-.1.34a3.79,3.79,0,0,0,.1,1.77c0,.09.1.17.1.26v.1c0,.09.09.17.09.26s.1.17.17.34A3.63,3.63,0,0,1,1,6.08l.17.17.16.17a3.45,3.45,0,0,1-.09,4.83,2.65,2.65,0,0,0-.5.6c-.1.1-.1.17-.17.34v.09c-.1.1-.1.17-.17.27v.09c0,.1-.09.17-.09.27V13a.28.28,0,0,1-.1.26v1.27a.31.31,0,0,0,.1.27v.09a3.83,3.83,0,0,0,1,1.7,3.45,3.45,0,0,1,0,4.91l-.09.1-.17.16v.1c-.1.1-.17.17-.17.26a.1.1,0,0,1-.1.1c-.09.09-.09.17-.16.26l-.1.1c0,.09-.1.09-.1.17s-.09.09-.09.16,0,.1-.1.17A2.8,2.8,0,0,0,0,24.18v.67c.1.27.1.51.26.67a.24.24,0,0,0,.1.17s0,.1.09.1.1.16.1.26a.1.1,0,0,0,.1.1.93.93,0,0,0,.26.33.1.1,0,0,0,.1.1.09.09,0,0,0,.09.09.1.1,0,0,0,.1.1l.09.09c.1.1.17.1.17.17l.1.1a.09.09,0,0,1,.09.09c.1.1.17.17.27.17a.09.09,0,0,1,.09.1c.1.09.17.09.26.16h0c.1.1.17.1.34.1s.26.1.33.1h.1a.31.31,0,0,1,.26.09h.77c.26,0,.43-.09.67-.09h.09c.1,0,.17-.1.27-.1h0c.09,0,.16-.1.26-.1h.09c.17-.09.44-.26.6-.33l.27-.26.09-.1a3.33,3.33,0,0,1,4.91,0,3.63,3.63,0,0,0,5.51-.26,3.75,3.75,0,0,0,0-4.5,3.62,3.62,0,0,0-5.25-.44l-.16.17-.34.27a3.52,3.52,0,0,1-4.67-.27l-.17-.17-.26-.33a3.53,3.53,0,0,1,.26-4.67,3.3,3.3,0,0,0,1.11-2.54V14a3.1,3.1,0,0,0-1-2.3c0-.1-.1-.1-.1-.17l-.26-.33a3.53,3.53,0,0,1,.26-4.67l.1-.1.1-.09a3.32,3.32,0,0,1,4.9,0l.1.09.1.1.16.17c.1,0,.1.09.17.09s.1.1.17.1.09.09.17.09.09.1.16.1.1.1.17.1.1.09.17.09.1,0,.17.1.09,0,.16.09h1.44a.3.3,0,0,0,.26-.09H15c.1,0,.17-.1.27-.1h.09c.1,0,.17-.09.34-.17a4.16,4.16,0,0,0,.93-.67l.1-.09a3.32,3.32,0,0,1,4.9,0,3.5,3.5,0,0,0,5.44-.17A4.17,4.17,0,0,0,27,1.44"/><path class="cls-1" d="M46.31,12a4.71,4.71,0,0,0-1.54-1.1,3.82,3.82,0,0,0-1.86-.43,4.12,4.12,0,0,0-1.87.43A3.19,3.19,0,0,0,39.77,12,4.32,4.32,0,0,0,39,13.48a7,7,0,0,0-.26,1.77A4.78,4.78,0,0,0,39.07,17a4.18,4.18,0,0,0,.84,1.44,3.68,3.68,0,0,0,1.37,1,3.81,3.81,0,0,0,1.77.33,4,4,0,0,0,1.87-.43,4.7,4.7,0,0,0,1.43-1.1l1.78,1.87a5.82,5.82,0,0,1-2.3,1.6,7.39,7.39,0,0,1-2.8.5,7.89,7.89,0,0,1-2.88-.5,6.43,6.43,0,0,1-3.64-3.64,8.52,8.52,0,0,1,0-5.75A8.33,8.33,0,0,1,38,10.06a6.51,6.51,0,0,1,2.2-1.44A7.89,7.89,0,0,1,43,8.12a7.61,7.61,0,0,1,2.8.5,6.46,6.46,0,0,1,2.37,1.6L46.31,12m5.74,3.13A4.56,4.56,0,0,0,52.39,17a4.28,4.28,0,0,0,.84,1.53,2.84,2.84,0,0,0,1.36.94,4.25,4.25,0,0,0,1.87.33,4.88,4.88,0,0,0,1.87-.33,6.66,6.66,0,0,0,1.36-.94A4.44,4.44,0,0,0,60.53,17a6.73,6.73,0,0,0,.33-1.87,4.51,4.51,0,0,0-.33-1.86,4.58,4.58,0,0,0-.84-1.54,2.92,2.92,0,0,0-1.36-.93,4.28,4.28,0,0,0-1.87-.33,4.88,4.88,0,0,0-1.87.33,6.37,6.37,0,0,0-1.36.93,4.41,4.41,0,0,0-.84,1.54A6.66,6.66,0,0,0,52.05,15.08Zm-2.7,0a7.57,7.57,0,0,1,.5-2.8A6.81,6.81,0,0,1,51.38,10a6.15,6.15,0,0,1,2.3-1.53,7.6,7.6,0,0,1,2.8-.6,6.08,6.08,0,0,1,2.8.6A6.86,6.86,0,0,1,61.58,10a8.39,8.39,0,0,1,1.53,2.3,7.39,7.39,0,0,1,.51,2.8,7.63,7.63,0,0,1-.51,2.81,6.63,6.63,0,0,1-1.53,2.29,7.37,7.37,0,0,1-2.3,1.54,7.6,7.6,0,0,1-2.8.59,6.15,6.15,0,0,1-2.8-.59,6.84,6.84,0,0,1-2.3-1.54,7.41,7.41,0,0,1-1.53-2.29A10.45,10.45,0,0,1,49.35,15.08ZM66.23,22h2.53V8.4H66.23Zm-.6-18.49a2.16,2.16,0,0,1,.5-1.36,1.82,1.82,0,0,1,1.27-.6,1.52,1.52,0,0,1,1.27.6,1.92,1.92,0,0,1,.5,1.36,2.12,2.12,0,0,1-.5,1.37,1.86,1.86,0,0,1-1.27.6,1.52,1.52,0,0,1-1.27-.6A2,2,0,0,1,65.63,3.47Zm6.68,4.91h2.56v2.11H75a3.23,3.23,0,0,1,1.7-1.77A5.53,5.53,0,0,1,79.47,8a4.8,4.8,0,0,1,1.86.34,3.53,3.53,0,0,1,1.54.93A6.06,6.06,0,0,1,84,10.92a6.39,6.39,0,0,1,.43,2.37V22H81.81V14a4.43,4.43,0,0,0-.26-1.6,3.74,3.74,0,0,0-.67-1.1,2,2,0,0,0-1-.6,4.27,4.27,0,0,0-1.19-.17,4.19,4.19,0,0,0-1.44.26,3.17,3.17,0,0,0-1.2.84,3.29,3.29,0,0,0-.76,1.44,7.39,7.39,0,0,0-.27,2v7H72.48V8.4M93.76,19.82a4.88,4.88,0,0,0,1.87-.33,4.67,4.67,0,0,0,1.43-1A4.28,4.28,0,0,0,97.9,17,6.77,6.77,0,0,0,98.24,15a5.18,5.18,0,0,0-.34-1.94,4.28,4.28,0,0,0-.84-1.53,4.08,4.08,0,0,0-1.43-1,4.53,4.53,0,0,0-1.87-.33,5.08,5.08,0,0,0-1.87.33,4.85,4.85,0,0,0-1.43,1,4.44,4.44,0,0,0-.84,1.53A6.77,6.77,0,0,0,89.28,15,5.14,5.14,0,0,0,89.62,17a4.44,4.44,0,0,0,.84,1.53,3.34,3.34,0,0,0,1.43,1A6.18,6.18,0,0,0,93.76,19.82Zm7,2H98.26V19.92h-.09a5.06,5.06,0,0,1-2,1.7,5.89,5.89,0,0,1-2.7.6,8.1,8.1,0,0,1-2.88-.5,5.64,5.64,0,0,1-2.2-1.54A6.31,6.31,0,0,1,87,17.89a7.64,7.64,0,0,1-.5-2.81,8.33,8.33,0,0,1,.5-2.87,8.15,8.15,0,0,1,1.37-2.3,5.94,5.94,0,0,1,2.2-1.53,7.52,7.52,0,0,1,2.88-.5,5.76,5.76,0,0,1,2.7.6,4.64,4.64,0,0,1,1.94,1.7h.1V0h2.53V21.86Zm13-7.88a4.79,4.79,0,0,0-.26-1.6,3.19,3.19,0,0,0-.77-1.27,5.1,5.1,0,0,0-1.19-.84,5,5,0,0,0-1.7-.33,4,4,0,0,0-1.7.33,4.79,4.79,0,0,0-1.37.94,3.4,3.4,0,0,0-.84,1.26,4.85,4.85,0,0,0-.33,1.37h8.14Zm-8.11,2.11a3.24,3.24,0,0,0,.43,1.6,4,4,0,0,0,1,1.27,4.89,4.89,0,0,0,1.44.77,5.9,5.9,0,0,0,1.7.26,3.53,3.53,0,0,0,2.11-.6,5.77,5.77,0,0,0,1.6-1.43l1.94,1.53a7.19,7.19,0,0,1-6,2.8,7.7,7.7,0,0,1-2.87-.5,5.75,5.75,0,0,1-2.21-1.53,5.79,5.79,0,0,1-1.36-2.3,7.39,7.39,0,0,1-.5-2.8,7.62,7.62,0,0,1,.5-2.81,8.1,8.1,0,0,1,1.44-2.29,7.13,7.13,0,0,1,2.2-1.54,7.59,7.59,0,0,1,2.8-.5,6.58,6.58,0,0,1,3,.6,5.78,5.78,0,0,1,2,1.6,7.49,7.49,0,0,1,1.19,2.3,8.47,8.47,0,0,1,.34,2.64v.93Zm20.83-4.31a5.82,5.82,0,0,0-1.1-.93,3.12,3.12,0,0,0-1.61-.43,3.24,3.24,0,0,0-1.6.43,1.21,1.21,0,0,0-.67,1.1,1,1,0,0,0,.43.93,3.62,3.62,0,0,0,.93.6,5.33,5.33,0,0,0,1.1.34,5.77,5.77,0,0,0,1,.16,9.8,9.8,0,0,1,1.53.51,3.24,3.24,0,0,1,1.27.76,5.08,5.08,0,0,1,.84,1.1,4.2,4.2,0,0,1,.33,1.61,3.48,3.48,0,0,1-.5,1.94,5.47,5.47,0,0,1-1.27,1.36,5.17,5.17,0,0,1-1.77.77,8.24,8.24,0,0,1-1.94.26,8.33,8.33,0,0,1-3-.5,5.44,5.44,0,0,1-2.3-1.87l1.94-1.6a7.77,7.77,0,0,0,1.37,1.1,3.31,3.31,0,0,0,1.86.5,3.47,3.47,0,0,0,1-.1,2.46,2.46,0,0,0,.84-.33,4.06,4.06,0,0,0,.6-.5,1.51,1.51,0,0,0,.26-.77,1.36,1.36,0,0,0-.34-.93,2.89,2.89,0,0,0-.83-.6,4,4,0,0,0-1-.34l-1-.26c-.51-.17-1.11-.26-1.54-.43a5,5,0,0,1-1.27-.67,4.43,4.43,0,0,1-.93-1.1,3.16,3.16,0,0,1-.33-1.61,4.08,4.08,0,0,1,.43-1.86,3.29,3.29,0,0,1,1.19-1.27A5.56,5.56,0,0,1,122,8.38a7.07,7.07,0,0,1,1.86-.26,7,7,0,0,1,2.64.5,4.31,4.31,0,0,1,2,1.7l-2.1,1.46M131.4.34h2.54V14.05l5.77-5.77h3.47L137,14.39l6.78,7.28h-3.64l-6.18-7v7h-2.54V.34"/></g></g></svg>