<svg xmlns="http://www.w3.org/2000/svg" xmlns:xlink="http://www.w3.org/1999/xlink" viewBox="0 0 126.34 35.91"><defs><style>.cls-1{fill:#fff;fill-rule:evenodd;}.cls-2{fill:#9594a2;}.cls-3{mask:url(#mask);}.cls-4{mask:url(#mask-2);}.cls-5{mask:url(#mask-3);}</style><mask id="mask" x="114.02" y="13.11" width="12.32" height="19.68" maskUnits="userSpaceOnUse"><g id="b"><path id="a" class="cls-1" d="M114,13.11h12.32V32.79H114Z"/></g></mask><mask id="mask-2" x="20.51" y="0" width="22.15" height="27.05" maskUnits="userSpaceOnUse"><g id="d"><path id="c" class="cls-1" d="M20.51,0H42.66V27.05H20.51Z"/></g></mask><mask id="mask-3" x="-0.81" y="8.19" width="22.15" height="27.72" maskUnits="userSpaceOnUse"><g id="f"><path id="e" class="cls-1" d="M-.81,8.19H21.33V35.91H-.81Z"/></g></mask></defs><g id="Layer_2" data-name="Layer 2"><g id="Layer_2-2" data-name="Layer 2"><path class="cls-2" d="M93.75,27.32c-4.34,0-7-2.51-7-6.57s2.49-6.82,6.49-6.82h.34a18.11,18.11,0,0,1,2.14.13V9h2.83V26.86a34.36,34.36,0,0,1-4.77.46m0-11.16c-2.74,0-4.08,1.48-4.08,4.52,0,2.74,1.61,4.43,4.2,4.43.49,0,1.06,0,1.84-.09V16.34a12.91,12.91,0,0,0-2-.18M55,26.91,47.32,13.57V26.91H44.66V10h3.73L56,23.24V10h2.7V26.91Zm24.36.26a21.77,21.77,0,0,1-4.22-.45l-.18,0V24.33l.26.05a18.55,18.55,0,0,0,3.84.56c1,0,3.27-.16,3.27-1.6,0-1.22-1.58-1.52-2.85-1.77h-.08l-.65-.14c-1.87-.48-3.86-1.21-3.86-3.71s1.93-3.83,5.3-3.83a23.68,23.68,0,0,1,3.73.31l.45.07v2.29l-.24-.05a20.38,20.38,0,0,0-3.52-.39c-1.33,0-2.92.25-2.92,1.43,0,1,1.3,1.27,2.8,1.6,2.1.45,4.71,1,4.71,3.89,0,2.63-2.13,4.14-5.84,4.14m27.14,0c-2.93,0-5.64-.51-5.64-4.26,0-4.07,4.19-4.07,6.7-4.07l1.79.07c0-2.28,0-2.83-3.34-2.83a24.08,24.08,0,0,0-4.06.49l-.25.05V14.36l.17,0a21.34,21.34,0,0,1,4.4-.45c3.21,0,5.93.32,5.93,4.3v8.69l-.2,0a46.92,46.92,0,0,1-5.5.28m1-6.31c-2.42,0-3.92.35-3.92,2.12,0,2.05,1.91,2.22,3.71,2.22.67,0,1.87-.08,2.24-.11V20.93c-.52,0-1.87-.07-2-.07M66.74,27.17c-2.93,0-5.65-.51-5.65-4.26,0-4.07,4.2-4.07,6.71-4.07l1.79.07c0-2.28,0-2.83-3.34-2.83a24,24,0,0,0-4.06.49l-.25.05V14.36l.17,0a21.68,21.68,0,0,1,4.4-.45c3.21,0,5.93.32,5.93,4.3v8.69l-.2,0a46.92,46.92,0,0,1-5.5.28m1-6.31c-2.42,0-3.92.35-3.92,2.12,0,2.05,1.91,2.22,3.71,2.22.67,0,1.88-.08,2.24-.11V20.93c-.52,0-1.87-.07-2-.07"/><g class="cls-3"><path class="cls-2" d="M123.44,32.65V27.11a14,14,0,0,1-2.16.15,9,9,0,0,1-3.34-.65c-2.16-.89-3.44-3.17-3.44-6.1a6.3,6.3,0,0,1,2.73-5.57,8.84,8.84,0,0,1,4.73-1c.76,0,1.78.06,2.77.12l1.61.08V31.37Zm-1.69-16.5c-2.88,0-4.34,1.47-4.34,4.36,0,3.72,2.18,4.5,4,4.5a14.07,14.07,0,0,0,2-.14V16.23c-.87-.05-1.27-.08-1.72-.08Z"/></g><g class="cls-4"><path class="cls-2" d="M32,0,22.64,25.73a1.78,1.78,0,0,1-1.5,1.17H31a1.79,1.79,0,0,0,1.68-1.18L42.09,0Z"/></g><path class="cls-2" d="M20.33,26.52a1.66,1.66,0,0,0,1.38-.72,1.73,1.73,0,0,0,.23-.41L25.37,16l-2-5.52a1.7,1.7,0,0,0-2.22-.91,1.8,1.8,0,0,0-.73.58,2.49,2.49,0,0,0-.22.42L16.75,20l2,5.54a1.7,1.7,0,0,0,1.56,1"/><g class="cls-5"><path class="cls-2" d="M21.06,9h-10a1.81,1.81,0,0,0-1.69,1.18L0,35.91H10.08l9.37-25.73A1.78,1.78,0,0,1,21.06,9Z"/></g></g></g></svg>