<svg xmlns="http://www.w3.org/2000/svg" viewBox="0 0 111.41 29.16"><defs><style>.cls-1{fill:#9594a2;}</style></defs><g id="Layer_2" data-name="Layer 2"><g id="Layer_2-2" data-name="Layer 2"><path class="cls-1" d="M10.75,2.72h2.44a8.23,8.23,0,0,1,4.39.55A7.76,7.76,0,0,1,21.09,8c.37,1,.37,1,1.24.66H23V.49H.05V1.93H1a2.75,2.75,0,0,1,2.14,1c.87,1.41,1,3,1,11.24,0,8.75-.19,10.89-1,12a2.3,2.3,0,0,1-1.78.94c-1.31.24-1.31.22-1.31.8a.88.88,0,0,0,0,.6H14.54a1.32,1.32,0,0,0,0-1.22,7.81,7.81,0,0,0-1.07-.22,7.55,7.55,0,0,1-1.15-.23,3.89,3.89,0,0,1-1.57-3.49,50.64,50.64,0,0,1-.32-6.14v-1.7h.86a11.68,11.68,0,0,1,3.17.35,4,4,0,0,1,1.84,2.82l.19.67H17.8V9.84H16.6l-.2.92a3.8,3.8,0,0,1-1.94,2.83,3.62,3.62,0,0,1-1.57.11H10.43V11.39c0-2.4.13-7.45.22-8.24Zm100.16,17a7.74,7.74,0,0,0-4.43-3.36,10.73,10.73,0,0,1-3.83-2.14,2.15,2.15,0,0,1-.62-1.91,2.51,2.51,0,0,1,.75-1.79,2.59,2.59,0,0,1,2.57-.71,5.41,5.41,0,0,1,3.79,4c.34,1,.38,1,1,.71l.39-.15V9l-.28-.13a16.67,16.67,0,0,0-6.57-.9,7.77,7.77,0,0,0-5.14,2.14,6,6,0,0,0-1.86,4.63,5,5,0,0,0,1.46,3.51,8.69,8.69,0,0,0,3.63,2.14c3.32,1.3,4.28,2.14,4.28,3.66a2.81,2.81,0,0,1-2.14,2.8,5.38,5.38,0,0,1-2.26,0,6.59,6.59,0,0,1-4-4.52l-.27-.68H97a1.65,1.65,0,0,0-.53.13h-.22v6.08h.37a21.69,21.69,0,0,0,4.45,1h2.14a8.28,8.28,0,0,0,2.76-.26,6.66,6.66,0,0,0,5-4.28,5.06,5.06,0,0,0,.38-1.92A5.21,5.21,0,0,0,110.91,19.69ZM90.75,8.62a9.91,9.91,0,0,0-8.07.2,9.41,9.41,0,0,0-4.9,5.84,11.31,11.31,0,0,0-.57,4.28,10.86,10.86,0,0,0,.19,2.35A9.51,9.51,0,0,0,85.08,29a15.68,15.68,0,0,0,3.75,0,10.12,10.12,0,0,0,3.63-1.4,6.3,6.3,0,0,0,2.27-2.14,1.06,1.06,0,0,0-.51-.66,2.71,2.71,0,0,0-.69.37,6.09,6.09,0,0,1-3.59,1,5.68,5.68,0,0,1-4.56-1.8,5,5,0,0,1-1.09-1.45,10,10,0,0,1-1.05-4.28v-.84H95.1v-.42q0-.64,0-1.29A8.57,8.57,0,0,0,90.75,8.62Zm-6,7.41h-1.5V14.77c.5-3.23,1.72-5.16,3.21-5.16s2.14,1.9,2.42,5.39v1H87.63ZM54,7.92a4.39,4.39,0,0,0-2.14.45,7.13,7.13,0,0,0-3.32,3.32l-.28.51V7.92h-.11c-.25,0-8.17,1.58-8.43,1.69s-.17.13-.17.51,0,.45.17.47l.84.17a1.6,1.6,0,0,1,1.2.63c.53.7.64,1.94.64,7.23a42.51,42.51,0,0,1-.3,7.13,1.77,1.77,0,0,1-1.48,1.39l-.73.15h-.27v.6a.83.83,0,0,0,0,.62h12v-.62a1.62,1.62,0,0,0,0-.62A12.79,12.79,0,0,1,49.45,27a2.14,2.14,0,0,1-1.14-2.14,75.93,75.93,0,0,1-.21-7.66c0-2.79,0-3,.24-3.15a3.81,3.81,0,0,1,2.5-.79,5.62,5.62,0,0,1,2.44.62,3.48,3.48,0,0,0,.83.32S56.25,9,56.25,8.77A2.53,2.53,0,0,0,54,7.92Zm-14.43,9a9.59,9.59,0,0,0-4.41-7.62,11.1,11.1,0,0,0-10-.28,9.66,9.66,0,0,0-4.69,5.56,14.38,14.38,0,0,0,0,8.22,9,9,0,0,0,2.29,3.88,8.69,8.69,0,0,0,4.94,2.39,21.64,21.64,0,0,0,3.6,0,9.86,9.86,0,0,0,1.31-.28,9.51,9.51,0,0,0,6.82-7.59A18.06,18.06,0,0,0,39.58,16.91Zm-8.9,10.7c-2.14.64-3.75-1.44-4.28-5.8a39.41,39.41,0,0,1,0-6.87c.43-3.51,1.52-5.29,3.21-5.29a2.16,2.16,0,0,1,1.8.79c1.43,1.44,2.14,4.28,2.14,8.56a15.84,15.84,0,0,1-1.12,7.11,3.22,3.22,0,0,1-1.75,1.39ZM69.2,8.35a6.93,6.93,0,0,0-1.82,0A8.12,8.12,0,0,0,64,9.07l-.66.28V4.71a30.86,30.86,0,0,0,0-4.71c-.26,0-8.43,1.56-8.56,1.63a.69.69,0,0,0,0,.49c0,.45,0,.43,1,.64a2.68,2.68,0,0,1,.77.3,2.57,2.57,0,0,1,.79,1.48,23.81,23.81,0,0,1,.24,4.92V28.25l.58.13c.85.19,3.27.6,4.06.68a29,29,0,0,0,4.75,0,9.7,9.7,0,0,0,8-6,14.59,14.59,0,0,0,.81-3.25,19,19,0,0,0-.15-4.52A8.23,8.23,0,0,0,69.2,8.35ZM63.59,27.24c0-.27-.21-9.65-.17-13.39V10.91l.62-.15a4.5,4.5,0,0,1,1.27,0,2.17,2.17,0,0,1,1.32.3,6.42,6.42,0,0,1,2.76,4.88,23,23,0,0,1,0,4.69,10.21,10.21,0,0,1-2.48,6.14,3,3,0,0,1-1.52.77,3.55,3.55,0,0,1-1.3,0c-.41,0-.41-.12-.41-.3h-.09Z"/></g></g></svg>