<svg xmlns="http://www.w3.org/2000/svg" viewBox="0 0 99.88 31.03"><defs><style>.cls-1{fill:#9594a2;fill-rule:evenodd;}</style></defs><g id="Layer_2" data-name="Layer 2"><g id="Layer_2-2" data-name="Layer 2"><path class="cls-1" d="M7.74,31h2.33V18.62H7.74Zm8.52-.19h2.08V23l8.76,8V18.8H25v7.7l-8.76-7.88Zm15.59-3a6.4,6.4,0,0,0,3.95,1.39c1.42,0,2.42-.49,2.42-1.57s-.64-1.31-1.75-1.72l-1.8-.62c-1.66-.59-2.93-1.45-2.93-3.43s1.92-3.27,4.2-3.27a7,7,0,0,1,3.68,1v2.1A6,6,0,0,0,36,20.4c-1.26,0-2.2.47-2.2,1.44s.59,1.24,1.63,1.6l2,.7c1.94.68,2.83,1.74,2.83,3.49,0,2.19-1.93,3.4-4.46,3.4A7.26,7.26,0,0,1,31.85,30ZM45.68,31H48V18.62H45.68ZM58.9,29.15c2.62,0,4-1.68,4-4.33s-1.4-4.34-4-4.34H56.31v8.67ZM54.2,18.62H59c3.68,0,6.06,2.42,6.06,6.2S62.66,31,59,31H54.2Zm22.45,0v1.86H71v3h5V25.3H71v3.85h5.62V31H68.91V18.62Zm8.25,5.62h2.3c1.37,0,2.14-.75,2.14-1.9s-.77-1.9-2.14-1.9H84.9v3.8Zm0,1.75v5H82.85V18.62h4.39c2.51,0,4.13,1.29,4.13,3.72,0,2.08-.9,3.27-2.82,3.58L92.91,31H90.58l-4.22-5H84.9Zm-78-19.6a2.74,2.74,0,0,0,1.62-2.7C8.55,1.4,6.93.22,4.34.22H0V13H4.75C7.33,13,9,11.71,9,9.32A3.09,3.09,0,0,0,6.93,6.39ZM2,5.58V2.09H4.32c1.44,0,2.21.52,2.21,1.72S5.76,5.58,4.32,5.58ZM2,7.37H4.71c1.41,0,2.18.7,2.18,1.87s-.77,1.87-2.18,1.87H2V7.37Zm16.39,5.82c3,0,5-1.79,5-5.28V.22H21.3V7.66c0,2.45-1,3.6-2.87,3.6s-2.87-1.15-2.87-3.6V.22h-2.1V7.89C13.46,11.4,15.48,13.19,18.43,13.19Zm9.92-1.12a7,7,0,0,0,3.94,1.12c2.52,0,4.44-1.29,4.44-3.62,0-1.85-.89-3-2.83-3.7l-2-.75c-1-.37-1.61-.75-1.61-1.68s.93-1.54,2.18-1.54a5.68,5.68,0,0,1,3.62,1.37V1.05a6.53,6.53,0,0,0-3.66-1c-2.28,0-4.18,1.23-4.18,3.47s1.25,3,2.91,3.64l1.8.66c1.11.44,1.73.84,1.73,1.83,0,1.15-1,1.67-2.4,1.67A6.17,6.17,0,0,1,28.35,9.8ZM44.24.22h-2.1V13h2.1Zm6,12.74h2V4.66l8.52,8.5V.2h-2V8.36L50.24,0ZM73.91.22V2.13H68.46V5.2h4.89V7.09H68.46v4h5.45V13H66.4V.22Zm4.9,11.84a7,7,0,0,0,3.94,1.12c2.52,0,4.44-1.29,4.44-3.62,0-1.85-.89-3-2.83-3.7l-2-.75c-1-.37-1.61-.74-1.61-1.68s.92-1.54,2.18-1.54a5.65,5.65,0,0,1,3.61,1.37V1a6.5,6.5,0,0,0-3.65-1C80.6,0,78.7,1.23,78.7,3.47s1.26,3,2.91,3.64l1.8.66c1.11.44,1.74.84,1.74,1.83,0,1.15-1,1.67-2.4,1.67a6.11,6.11,0,0,1-3.94-1.48Zm12.69,0a7,7,0,0,0,3.94,1.12c2.52,0,4.44-1.29,4.44-3.62,0-1.85-.89-3-2.83-3.7l-2-.75c-1-.37-1.61-.74-1.61-1.68s.93-1.54,2.18-1.54a5.65,5.65,0,0,1,3.61,1.37V1a6.48,6.48,0,0,0-3.65-1C93.29,0,91.4,1.23,91.4,3.47s1.25,3,2.9,3.64l1.8.66c1.11.44,1.74.84,1.74,1.83,0,1.15-1,1.67-2.4,1.67A6.11,6.11,0,0,1,91.5,9.79Z"/></g></g></svg>