<?xml version="1.0" encoding="utf-8"?>
<!-- Generator: Adobe Illustrator 26.0.1, SVG Export Plug-In . SVG Version: 6.00 Build 0)  -->
<svg version="1.1" id="Layer_1" xmlns="http://www.w3.org/2000/svg" xmlns:xlink="http://www.w3.org/1999/xlink" x="0px" y="0px"
	 viewBox="0 0 1609 233" style="enable-background:new 0 0 1609 233;" xml:space="preserve">
<style type="text/css">
	.st0{clip-path:url(#SVGID_00000030484615328741173680000004701641721412326801_);}
	.st1{fill:#595959;}
	.st2{fill:#FFFFFF;}
	.st3{fill:#72758D;}
	.st4{fill:#05FAA8;}
	.st5{fill-rule:evenodd;clip-rule:evenodd;}
</style>
<g>
	<defs>
		<rect id="SVGID_1_" y="5" width="1000" height="223.9"/>
	</defs>
	<clipPath id="SVGID_00000023271640020522569850000013045775739902244253_">
		<use xlink:href="#SVGID_1_"  style="overflow:visible;"/>
	</clipPath>
	<g style="clip-path:url(#SVGID_00000023271640020522569850000013045775739902244253_);">
		<path class="st1" d="M11.9,6.4h182.9c6.5,0,11.9,5.4,11.9,11.9v182.9c0,6.5-5.4,11.9-11.9,11.9H11.9c-6.5,0-11.9-5.4-11.9-11.9
			V18.3C0,11.8,5.4,6.4,11.9,6.4z"/>
		<path class="st2" d="M170.1,144.3h-20.3l-34.5-68.9h3.1c1.2,0,2.2-1,2.2-2.2v-30c0-1.2-1-2.2-2.2-2.2h-30c-1.2,0-2.2,1-2.2,2.2v30
			c0,1.2,1,2.2,2.2,2.2h3.1L57,144.3H36.7c-1.2,0-2.2,1-2.2,2.2v30c0,1.2,1,2.2,2.2,2.2h30c1.2,0,2.2-1,2.2-2.2v-30
			c0-1.2-1-2.2-2.2-2.2h-3.1l34.5-68.9h10.6l34.5,68.9H140c-1.2,0-2.2,1-2.2,2.2v30c0,1.2,1,2.2,2.2,2.2h30c1.2,0,2.2-1,2.2-2.2v-30
			C172.3,145.2,171.3,144.3,170.1,144.3z"/>
		<path class="st1" d="M256.7,41.4h24.9l77.1,115.1h0.4V41.4H378v140.1h-24.2L276,66.4h-0.4v115.1h-18.9V41.4z"/>
		<path class="st1" d="M406.8,54.1c0-3.6,1.3-6.6,3.9-9.2c2.6-2.6,5.6-3.9,9.2-3.9c3.6,0,6.6,1.3,9.2,3.9c2.6,2.6,3.9,5.6,3.9,9.2
			c0,3.6-1.3,6.6-3.9,9.2s-5.6,3.9-9.2,3.9c-3.6,0-6.6-1.3-9.2-3.9C408.1,60.8,406.8,57.7,406.8,54.1z M410.9,87.8h17.8v93.7h-17.8
			V87.8z"/>
		<path class="st1" d="M464,103.3h-20.2V87.8H464v-21c0-12.5,2.4-21.9,7.2-28c4.8-6.1,13.1-9.2,24.8-9.2c2,0,4,0.1,6.2,0.2
			c2.2,0.1,4.5,0.5,7,1.2l-2,15.9c-1.7-0.7-3.4-1.1-4.9-1.4c-1.6-0.3-3.3-0.4-5.1-0.4c-3.3,0-5.9,0.5-7.9,1.5c-2,1-3.5,2.4-4.6,4.3
			c-1.1,1.8-1.8,4.1-2.2,6.6s-0.5,5.5-0.5,8.8v21.6h21.1v15.5h-21.3v78.2H464L464,103.3L464,103.3z"/>
		<path class="st1" d="M578.4,103.3h-25.6v42.5c0,2.6,0.1,5.2,0.2,7.8c0.1,2.6,0.6,4.9,1.5,6.9c0.9,2,2.2,3.7,4,4.9
			c1.8,1.2,4.4,1.9,7.8,1.9c2.1,0,4.3-0.2,6.5-0.6c2.2-0.4,4.3-1.1,6.1-2.2v16.2c-2.1,1.2-4.9,2-8.2,2.5c-3.4,0.5-6,0.7-7.8,0.7
			c-6.9,0-12.2-1-16-2.9c-3.8-1.9-6.5-4.4-8.3-7.4c-1.8-3-2.8-6.4-3.2-10.2c-0.3-3.8-0.5-7.5-0.5-11.4v-48.8h-20.6V87.8h20.6V61.4
			h17.8v26.3h25.6L578.4,103.3L578.4,103.3z"/>
		<path class="st1" d="M592.6,87.8h20.6l27.9,73.1h0.4L668,87.8h19.1l-44.5,113.9c-1.6,4.1-3.2,7.8-4.9,11.2
			c-1.7,3.4-3.8,6.2-6.1,8.6c-2.4,2.4-5.2,4.2-8.6,5.5c-3.4,1.3-7.5,2-12.3,2c-2.6,0-5.3-0.2-8-0.5c-2.7-0.3-5.3-1-7.8-2.1l2.2-16.2
			c3.6,1.4,7.1,2.2,10.7,2.2c2.8,0,5.1-0.4,7-1.1c1.9-0.7,3.6-1.8,4.9-3.2c1.4-1.4,2.5-3,3.5-4.8c0.9-1.8,1.8-4,2.8-6.3l5.7-14.8
			L592.6,87.8z"/>
		<path class="st1" d="M699.6,41.4h18.9V102h1.6L782,41.4h26.5l-67.6,64.7l72.2,75.4h-27.7l-65.3-70h-1.6v70h-18.9V41.4z"/>
		<path class="st1" d="M828.5,141.1c0,4.1,0.9,7.8,2.7,11.1c1.8,3.4,4.1,6.2,7,8.6c2.9,2.4,6.3,4.2,10.1,5.5c3.8,1.3,7.8,2,11.9,2
			c5.5,0,10.4-1.3,14.4-3.8c4.1-2.5,7.8-5.9,11.3-10.1l13.4,10.3c-9.9,12.8-23.7,19.1-41.5,19.1c-7.4,0-14.1-1.3-20.1-3.8
			c-6-2.5-11.1-6-15.2-10.4c-4.2-4.4-7.3-9.6-9.6-15.6c-2.2-6-3.4-12.5-3.4-19.5c0-7,1.2-13.5,3.7-19.5c2.4-6,5.8-11.2,10.1-15.6
			c4.3-4.4,9.4-7.9,15.3-10.4c5.9-2.5,12.4-3.8,19.4-3.8c8.3,0,15.3,1.5,21.1,4.3c5.7,2.9,10.4,6.7,14.1,11.4
			c3.7,4.7,6.4,9.9,8,15.8c1.6,5.9,2.5,11.8,2.5,17.9v6.3L828.5,141.1L828.5,141.1z M884.8,126.9c-0.1-3.9-0.8-7.6-1.9-10.8
			c-1.1-3.3-2.8-6.1-5.1-8.6c-2.2-2.4-5.1-4.3-8.4-5.7c-3.4-1.4-7.3-2.1-11.8-2.1c-4.4,0-8.4,0.8-12,2.5c-3.6,1.6-6.7,3.8-9.2,6.4
			c-2.5,2.6-4.5,5.6-5.8,8.8s-2.1,6.4-2.1,9.6L884.8,126.9L884.8,126.9z"/>
		<path class="st1" d="M905.5,87.8h20.5l27.9,73.1h0.4l26.5-73.1h19.1l-44.5,113.9c-1.6,4.1-3.2,7.8-4.9,11.2
			c-1.7,3.4-3.8,6.2-6.1,8.6c-2.4,2.4-5.2,4.2-8.6,5.5c-3.4,1.3-7.5,2-12.3,2c-2.6,0-5.3-0.2-8-0.5c-2.7-0.3-5.3-1-7.8-2.1l2.2-16.2
			c3.6,1.4,7.1,2.2,10.7,2.2c2.8,0,5.1-0.4,7-1.1c1.9-0.7,3.6-1.8,4.9-3.2c1.4-1.4,2.5-3,3.5-4.8c0.9-1.8,1.8-4,2.8-6.3l5.7-14.8
			L905.5,87.8z"/>
	</g>
</g>
<rect x="1040" class="st3" width="3.1" height="233"/>
<path class="st4" d="M1119.3,119.6c6.1-0.1,12.2,1.3,17.5,4.1c5.4,2.8,10,7,13.3,12.1c1.1-1.3,2.1-2.5,3.2-3.7
	c1.7-1.7,3.8-2.9,6-3.8c2.2-0.8,4.6-1.1,7-1c2.4,0.2,4.7,0.9,6.8,2c2.1,1.1,3.9,2.7,5.4,4.6c3.4,5.3,6.1,10.9,8.1,16.8
	c1.5,4,3.3,7.9,5.4,11.7c0.4,0.8,0.9,1.4,1.7,1.9c0.7,0.5,1.6,0.7,2.4,0.7c0.8,0,1.7-0.2,2.4-0.7c0.7-0.5,1.3-1.1,1.7-1.9
	c1.8-3.2,3-6.6,3.6-10.2c0.8-5.1,2.4-10,4.8-14.6c3.4-6,8.5-10.9,14.7-14.1c5.3-2.8,11.2-4.3,17.2-4.1v11.2
	c-14.6,0.7-23.6,12-23.3,22c0.3,10.1,9.3,20.5,23.3,20.9v10.8c-8.4,1.8-23.5-4.8-30.3-15.5c-1.4,2.3-3.3,4.3-5.7,5.7
	c-2.3,1.4-5,2.2-7.7,2.3c-10,0.7-15.2-4.2-18.4-11.4c-2.9-6.4-5.1-13-7.7-19.5c-0.6-1.4-1.3-2.8-2.2-4.1c-2.4-3.3-6.4-2.7-9.1,1.2
	c-2.5,4-4.1,8.6-4.5,13.3c-1.2,7.1-4.8,13.6-10.1,18.4c-4.8,4.7-10.9,7.9-17.5,9.2c-2.5,0.5-5.1,0.6-8,0.9v-11.6
	c3.1,0.1,6.2-0.5,9.2-1.6c2.9-1.2,5.5-2.9,7.7-5.1c2.4-2.1,4.2-4.8,5.3-7.7c1.1-3,1.5-6.1,1.1-9.3c-1.1-8.6-9.2-18.5-23.3-19.2
	L1119.3,119.6z"/>
<path class="st4" d="M1252.2,107.9v88.8h-144.6v-88.8H1252.2z M1263.8,96.4H1096v111.8h167.8V96.4z"/>
<path class="st5" d="M1565.5,158v-38.7l31.4,36.6c0.6,0.7,1.3,1.2,2.1,1.6s1.7,0.6,2.6,0.6c0.7,0,1.5-0.1,2.1-0.4
	c1.2-0.4,2.2-1.2,2.9-2.3c0.7-1,1.1-2.3,1.1-3.5V96.4h-12.4v38.7l-31.4-36.6c-0.8-1-1.9-1.6-3.2-1.9c-1.2-0.3-2.5-0.2-3.7,0.2
	c-1.2,0.4-2.2,1.2-2.9,2.3c-0.8,1-1.1,2.3-1.1,3.5V158H1565.5z M1429.5,130.8c2.8,1.7,6,2.5,9.3,2.5h19.5c0.8,0,1.6,0.1,2.4,0.4
	c0.8,0.3,1.4,0.8,2,1.4c0.9,0.9,1.4,2,1.7,3.1c0.2,1.2,0.1,2.4-0.4,3.5c-0.5,1.1-1.2,2.1-2.3,2.7c-1,0.7-2.2,1-3.4,1h-37.2V158h37.3
	c3.3,0,6.5-0.8,9.3-2.5c2.8-1.6,5.1-3.9,6.7-6.7c1.7-2.8,2.5-6,2.5-9.3s-0.9-6.5-2.5-9.3c-1.6-2.8-4-5.1-6.7-6.7
	c-2.8-1.7-6-2.5-9.3-2.5h-19.6c-0.9,0.1-1.7-0.1-2.5-0.3c-0.8-0.3-1.5-0.7-2.1-1.3c-0.6-0.6-1.1-1.3-1.5-2c-0.3-0.8-0.5-1.6-0.5-2.4
	c0-0.8,0.2-1.7,0.5-2.4c0.3-0.8,0.8-1.5,1.5-2c0.6-0.6,1.3-1,2.1-1.3c0.8-0.3,1.6-0.4,2.5-0.3h36.1V96.4h-36.1
	c-3.3,0-6.5,0.8-9.3,2.5c-2.8,1.6-5.1,3.9-6.7,6.7c-1.7,2.8-2.5,6-2.5,9.3s0.9,6.5,2.5,9.3C1424.4,126.9,1426.7,129.2,1429.5,130.8z
	 M1296.4,158c-1.7,0-3.2-0.7-4.4-1.8c-1.2-1.2-1.8-2.7-1.8-4.4v-49.2c0-1.6,0.7-3.2,1.8-4.4c1.2-1.2,2.7-1.8,4.4-1.8h28.9
	c3.3,0,6.5,0.8,9.3,2.5c2.8,1.6,5.1,3.9,6.7,6.7c1.7,2.8,2.6,6,2.5,9.3c0,4.6-1.7,9-4.8,12.3c1.5,1.6,2.7,3.5,3.5,5.6
	c0.8,2.1,1.3,4.4,1.2,6.7c0,3.3-0.8,6.5-2.5,9.3c-1.6,2.8-4,5-6.7,6.7c-2.8,1.7-6.1,2.5-9.3,2.5H1296.4z M1302.6,108.7V121h22.7
	c0.8,0,1.6-0.1,2.4-0.4c0.8-0.3,1.4-0.8,2-1.3c0.6-0.6,1-1.3,1.3-2c0.3-0.7,0.5-1.6,0.5-2.4c0-0.8-0.2-1.6-0.5-2.4
	c-0.3-0.7-0.8-1.4-1.3-2c-0.6-0.6-1.2-1-2-1.3c-0.8-0.3-1.6-0.5-2.4-0.4H1302.6z M1302.6,133.3v12.3h22.7c0.8,0,1.6-0.1,2.4-0.4
	c0.8-0.3,1.4-0.8,2-1.3c0.9-0.9,1.4-2,1.7-3.1c0.2-1.2,0.1-2.4-0.4-3.6c-0.5-1.1-1.3-2.1-2.3-2.8c-1-0.7-2.2-1-3.4-1H1302.6z
	 M1371.1,158c-3.3,0-6.5-0.8-9.3-2.5c-2.8-1.6-5.1-3.9-6.7-6.7c-1.7-2.8-2.6-6-2.5-9.3v-24.6c0-3.3,0.8-6.5,2.5-9.3
	c1.6-2.8,3.9-5.1,6.7-6.7c2.8-1.7,6.1-2.5,9.3-2.5h21.7c3.3,0,6.5,0.8,9.3,2.5c2.8,1.6,5.1,3.9,6.7,6.7c1.7,2.8,2.6,6,2.5,9.3v24.5
	c0,3.3-0.8,6.5-2.5,9.3c-1.6,2.8-4,5-6.7,6.7c-2.8,1.7-6.1,2.5-9.3,2.5L1371.1,158z M1365,114.8v24.6c0,0.8,0.2,1.6,0.5,2.4
	c0.3,0.7,0.8,1.4,1.3,2c0.6,0.6,1.2,1,2,1.3c0.8,0.3,1.6,0.5,2.4,0.5h21.7c0.8,0,1.6-0.1,2.4-0.4c0.8-0.3,1.4-0.8,2-1.3
	c0.6-0.6,1.1-1.2,1.4-2c0.3-0.7,0.5-1.6,0.5-2.4v-24.6c0-0.8-0.2-1.6-0.5-2.4c-0.3-0.7-0.8-1.4-1.3-2c-0.6-0.6-1.3-1-2-1.3
	s-1.5-0.5-2.4-0.5h-21.7c-0.8,0-1.6,0.1-2.4,0.5c-0.8,0.3-1.4,0.8-2,1.3c-0.6,0.6-1,1.2-1.3,2C1365.1,113.1,1364.9,113.9,1365,114.8
	L1365,114.8z M1504,158c-3.3,0-6.5-0.8-9.3-2.5c-2.8-1.6-5.1-3.9-6.7-6.7c-1.7-2.8-2.5-6-2.5-9.3v-24.6c0-3.3,0.8-6.5,2.5-9.3
	c1.6-2.8,4-5.1,6.7-6.7c2.8-1.7,6-2.5,9.3-2.5h21.7c3.3,0,6.5,0.8,9.3,2.5c2.8,1.6,5.1,3.9,6.7,6.7c1.7,2.8,2.6,6,2.5,9.3v24.5
	c0,3.3-0.8,6.5-2.5,9.3c-1.7,2.7-4,5-6.7,6.7c-2.8,1.7-6.1,2.5-9.3,2.5L1504,158z M1497.8,114.8v24.6c0,0.8,0.1,1.6,0.5,2.4
	c0.3,0.7,0.8,1.4,1.4,2c0.6,0.6,1.2,1,2,1.3c0.8,0.3,1.6,0.5,2.4,0.4h21.7c0.8,0,1.6-0.1,2.4-0.4s1.4-0.8,2-1.3
	c0.6-0.6,1.1-1.2,1.4-2c0.3-0.7,0.5-1.6,0.5-2.4v-24.6c0-0.8-0.1-1.6-0.5-2.4c-0.3-0.7-0.8-1.4-1.4-2c-0.6-0.6-1.2-1-2-1.3
	s-1.6-0.5-2.4-0.4H1504c-0.8,0-1.6,0.1-2.4,0.4c-0.8,0.3-1.4,0.8-2,1.3c-0.6,0.6-1,1.3-1.3,2.1c-0.3,0.8-0.4,1.6-0.4,2.4
	L1497.8,114.8z M1295.8,198.9v9.3h-5.6v-19.6c0-1.5,0.4-2.9,1.1-4.2c0.8-1.2,1.8-2.3,3.1-3c1.3-0.8,2.7-1.1,4.2-1.1h9.4
	c1.5,0,3,0.4,4.3,1.1c1.2,0.7,2.3,1.8,3,3c0.8,1.3,1.2,2.7,1.1,4.2v1.9c0,1.5-0.4,2.9-1.1,4.2c-0.7,1.3-1.8,2.3-3,3.1
	c-1.3,0.8-2.8,1.2-4.3,1.1H1295.8z M1295.8,188.7v4.7h12.1c0.4,0,0.7-0.1,1.1-0.2c0.3-0.1,0.7-0.3,0.9-0.6c0.3-0.3,0.5-0.6,0.6-0.9
	c0.1-0.3,0.2-0.7,0.2-1.1v-1.9c0-0.4-0.1-0.7-0.2-1.1c-0.1-0.3-0.3-0.6-0.6-0.9c-0.3-0.3-0.6-0.5-0.9-0.6c-0.4-0.1-0.7-0.2-1.1-0.2
	h-9.4c-0.7,0-1.4,0.3-1.9,0.8C1296.2,187.3,1295.9,187.9,1295.8,188.7L1295.8,188.7z M1338.3,208.3v-9.3h9.5l4.6,9.3h6.2l-4.9-10
	c1.5-0.6,2.8-1.7,3.8-3.1c1-1.4,1.5-3,1.4-4.7v-1.9c0-1.5-0.4-2.9-1.1-4.2c-0.7-1.3-1.8-2.3-3.1-3c-1.3-0.8-2.8-1.1-4.2-1.1h-9.4
	c-1.5,0-2.9,0.4-4.2,1.1c-1.2,0.7-2.3,1.8-3,3c-0.8,1.3-1.2,2.7-1.1,4.2v19.6H1338.3z M1338.3,193.4v-4.7c0-0.7,0.2-1.4,0.7-1.9
	c0.3-0.3,0.6-0.5,0.9-0.6c0.3-0.1,0.7-0.2,1.1-0.2h9.4c0.4,0,0.7,0.1,1.1,0.2c0.3,0.1,0.7,0.3,0.9,0.6c0.3,0.3,0.5,0.6,0.6,0.9
	c0.1,0.3,0.2,0.7,0.2,1.1v1.9c0,0.4-0.1,0.7-0.2,1.1c-0.2,0.3-0.4,0.6-0.6,0.9c-0.3,0.3-0.6,0.5-0.9,0.6c-0.3,0.1-0.7,0.2-1.1,0.2
	H1338.3z M1383.6,208.3c-1.5,0-3-0.4-4.2-1.1c-1.2-0.7-2.3-1.7-3-2.9c-0.8-1.3-1.2-2.7-1.1-4.2v-11.2c0-1.5,0.4-2.9,1.1-4.2
	c0.7-1.2,1.8-2.3,3-3c1.3-0.8,2.7-1.1,4.2-1.1h9.8c1.5,0,3,0.4,4.3,1.1c1.3,0.7,2.3,1.8,3,3c0.8,1.3,1.2,2.7,1.1,4.2V200
	c0,1.5-0.4,2.9-1.1,4.2c-0.7,1.3-1.8,2.3-3,3.1c-1.3,0.8-2.8,1.2-4.3,1.1L1383.6,208.3z M1380.8,188.7v11.2c0,0.4,0.1,0.7,0.2,1.1
	c0.1,0.3,0.3,0.6,0.6,0.9c0.3,0.3,0.6,0.5,0.9,0.6c0.3,0.1,0.7,0.2,1.1,0.2h9.8c0.4,0,0.7-0.1,1.1-0.2c0.4-0.1,0.7-0.3,0.9-0.6
	c0.3-0.3,0.5-0.6,0.6-0.9c0.1-0.3,0.2-0.7,0.2-1.1v-11.2c0-0.4-0.1-0.7-0.2-1.1c-0.1-0.3-0.3-0.6-0.6-0.9c-0.3-0.3-0.6-0.5-0.9-0.6
	c-0.3-0.1-0.7-0.2-1.1-0.2h-9.8c-0.4,0-0.7,0.1-1.1,0.2c-0.3,0.1-0.6,0.3-0.9,0.6c-0.3,0.2-0.5,0.6-0.7,0.9
	C1380.8,187.9,1380.8,188.3,1380.8,188.7L1380.8,188.7z M1427.7,185.9v22.4h5.7v-22.4h9.6v-5.6h-24.8v5.6H1427.7z M1467.6,208.3
	c-1.5,0-3-0.4-4.2-1.1c-1.2-0.7-2.3-1.8-3-3.1c-0.8-1.3-1.2-2.7-1.1-4.2v-11.2c0-1.5,0.4-2.9,1.1-4.2c0.7-1.2,1.8-2.3,3-3
	c1.3-0.8,2.8-1.1,4.2-1.1h9.8c1.5,0,3,0.4,4.2,1.1c1.3,0.7,2.3,1.8,3.1,3c0.8,1.3,1.2,2.7,1.1,4.2v11.2c0,1.5-0.4,2.9-1.1,4.2
	c-0.7,1.3-1.8,2.3-3.1,3.1c-1.3,0.8-2.8,1.1-4.2,1.1H1467.6z M1464.9,188.7v11.2c0,0.7,0.3,1.4,0.8,1.9s1.2,0.8,1.9,0.8h9.8
	c0.4,0,0.7-0.1,1.1-0.2c0.3-0.1,0.7-0.3,0.9-0.6c0.3-0.3,0.5-0.6,0.6-0.9c0.2-0.3,0.2-0.7,0.2-1.1v-11.2c0-0.4-0.1-0.7-0.2-1.1
	c-0.1-0.3-0.4-0.6-0.6-0.9c-0.3-0.3-0.6-0.5-0.9-0.6c-0.3-0.1-0.7-0.2-1.1-0.2h-9.8c-0.7,0-1.4,0.3-1.9,0.8s-0.8,1.2-0.8,1.9V188.7z
	 M1509,207.4c1.4,0.6,2.8,0.8,4.3,0.8h12.2v-5.6h-12.2c-0.7,0-1.5-0.1-2.2-0.4c-0.7-0.3-1.3-0.7-1.8-1.2c-0.5-0.5-0.9-1.1-1.2-1.8
	c-0.3-0.7-0.4-1.4-0.4-2.1v-5.6c0-1.5,0.6-2.9,1.7-3.9c1.1-1,2.5-1.6,4-1.6h12.2v-5.6h-12.2c-1.5,0-2.9,0.3-4.3,0.8
	c-1.4,0.6-2.6,1.4-3.7,2.4c-1,1-1.9,2.3-2.4,3.6c-0.6,1.4-0.8,2.8-0.8,4.3v5.6c0,1.5,0.3,2.9,0.8,4.3c0.6,1.4,1.4,2.6,2.4,3.6
	C1506.4,206,1507.7,206.9,1509,207.4z M1550.2,208.3c-1.5,0-3-0.4-4.2-1.1c-1.3-0.7-2.3-1.8-3-3.1c-0.8-1.3-1.2-2.7-1.1-4.2v-11.2
	c0-1.5,0.4-2.9,1.1-4.2c0.7-1.2,1.8-2.3,3-3c1.3-0.8,2.8-1.1,4.2-1.1h9.9c1.5,0,2.9,0.4,4.2,1.1c1.3,0.7,2.3,1.8,3.1,3
	c0.8,1.3,1.1,2.7,1.1,4.2v11.2c0,1.5-0.4,2.9-1.1,4.2c-0.7,1.3-1.8,2.3-3.1,3.1c-1.3,0.8-2.7,1.1-4.2,1.1H1550.2z M1547.4,188.7
	v11.2c0,0.4,0.1,0.7,0.2,1.1c0.1,0.3,0.3,0.6,0.6,0.9c0.3,0.3,0.6,0.5,0.9,0.6c0.3,0.1,0.7,0.2,1.1,0.2h9.9c0.4,0,0.7-0.1,1.1-0.2
	c0.3-0.1,0.6-0.3,0.9-0.6c0.3-0.3,0.5-0.6,0.6-0.9c0.1-0.3,0.2-0.7,0.2-1.1v-11.2c0-0.4-0.1-0.7-0.2-1.1c-0.1-0.3-0.3-0.6-0.6-0.9
	c-0.3-0.3-0.6-0.5-0.9-0.6c-0.3-0.1-0.7-0.2-1.1-0.2h-9.9c-0.4,0-0.7,0.1-1.1,0.2c-0.3,0.1-0.6,0.3-0.9,0.6
	c-0.2,0.3-0.4,0.6-0.6,0.9C1547.5,188,1547.4,188.3,1547.4,188.7z M1590.3,202.6v-22.3l-5.5,0.1v25.1c0,0.7,0.3,1.4,0.8,1.9
	c0.5,0.5,1.2,0.8,1.9,0.8h20.6v-5.6H1590.3z"/>
<path d="M1109.1,68.9c-2.6,0-5-0.5-7-1.5c-2-1.1-3.6-2.5-4.7-4.4c-1.1-1.9-1.6-4-1.6-6.5v-13c0-2.5,0.5-4.6,1.6-6.5
	c1.1-1.9,2.6-3.3,4.7-4.3c2-1,4.3-1.5,7-1.5c2.6,0,4.9,0.5,6.9,1.5c2,1,3.5,2.4,4.6,4.2c1.1,1.8,1.6,3.9,1.6,6.2
	c0,0.2-0.1,0.3-0.2,0.5c-0.1,0.1-0.2,0.2-0.4,0.2l-4.9,0.3c-0.4,0-0.6-0.2-0.6-0.6c0-2.1-0.7-3.7-2-5c-1.3-1.3-3-1.9-5.1-1.9
	c-2.1,0-3.9,0.6-5.2,1.9c-1.3,1.3-1.9,2.9-1.9,5v13.5c0,2,0.7,3.7,1.9,5c1.3,1.3,3,1.9,5.2,1.9c2.2,0,3.8-0.6,5.1-1.8
	c1.3-1.3,2-2.9,2-5c0-0.4,0.2-0.6,0.6-0.6l4.9,0.2c0.2,0,0.3,0.1,0.4,0.2c0.1,0.1,0.2,0.2,0.2,0.4c0,2.4-0.5,4.5-1.6,6.3
	c-1.1,1.8-2.6,3.2-4.6,4.2C1114,68.4,1111.7,68.9,1109.1,68.9z"/>
<path d="M1155.1,69c-2.6,0-5-0.5-7-1.6c-2-1.1-3.6-2.6-4.7-4.6c-1.1-2-1.6-4.2-1.6-6.8V44c0-2.5,0.6-4.8,1.7-6.7
	c1.1-2,2.7-3.5,4.7-4.5c2-1.1,4.4-1.6,7-1.6c2.7,0,5,0.5,7,1.6c2,1.1,3.6,2.6,4.8,4.5c1.1,1.9,1.7,4.2,1.7,6.7v12
	c0,2.6-0.6,4.8-1.7,6.8c-1.1,2-2.7,3.5-4.8,4.6C1160.1,68.5,1157.8,69,1155.1,69z M1155.1,63.7c2.2,0,4-0.7,5.3-2.1
	c1.3-1.4,2-3.2,2-5.4V43.9c0-2.3-0.7-4.1-2-5.5c-1.3-1.4-3.1-2.1-5.3-2.1c-2.2,0-3.9,0.7-5.3,2.1c-1.3,1.4-2,3.2-2,5.5v12.3
	c0,2.3,0.7,4.1,2,5.4C1151.2,63,1152.9,63.7,1155.1,63.7z"/>
<path d="M1210.6,32.1c0-0.2,0.1-0.3,0.2-0.4c0.1-0.1,0.3-0.2,0.5-0.2h4.9c0.2,0,0.3,0.1,0.4,0.2c0.1,0.1,0.2,0.2,0.2,0.4v35.7
	c0,0.2-0.1,0.3-0.2,0.5c-0.1,0.1-0.2,0.2-0.4,0.2h-4.7c-0.3,0-0.6-0.1-0.7-0.4l-15.2-24.9c-0.1-0.1-0.1-0.1-0.2-0.1
	c-0.1,0-0.1,0.1-0.1,0.2l0.1,24.6c0,0.2-0.1,0.3-0.2,0.5c-0.1,0.1-0.2,0.2-0.4,0.2h-4.9c-0.2,0-0.3-0.1-0.5-0.2
	c-0.1-0.1-0.2-0.3-0.2-0.5V32.1c0-0.2,0.1-0.3,0.2-0.4c0.1-0.1,0.3-0.2,0.5-0.2h4.7c0.3,0,0.6,0.1,0.7,0.4l15.1,24.9
	c0.1,0.1,0.1,0.2,0.2,0.2c0.1,0,0.1-0.1,0.1-0.3L1210.6,32.1z"/>
<path d="M1259.1,32.1c0-0.2,0.1-0.3,0.2-0.4c0.1-0.1,0.3-0.2,0.5-0.2h4.8c0.2,0,0.3,0.1,0.4,0.2c0.2,0.1,0.2,0.2,0.2,0.4v35.7
	c0,0.2-0.1,0.3-0.2,0.5c-0.1,0.1-0.2,0.2-0.4,0.2h-4.7c-0.4,0-0.6-0.1-0.7-0.4L1244,43.1c-0.1-0.1-0.1-0.1-0.2-0.1
	c-0.1,0-0.1,0.1-0.1,0.2l0.1,24.6c0,0.2-0.1,0.3-0.2,0.5c-0.1,0.1-0.2,0.2-0.4,0.2h-4.9c-0.2,0-0.3-0.1-0.5-0.2
	c-0.1-0.1-0.2-0.3-0.2-0.5V32.1c0-0.2,0.1-0.3,0.2-0.4c0.1-0.1,0.3-0.2,0.5-0.2h4.7c0.4,0,0.6,0.1,0.7,0.4l15.1,24.9
	c0.1,0.1,0.1,0.2,0.2,0.2c0.1,0,0.1-0.1,0.1-0.3L1259.1,32.1z"/>
<path d="M1311.2,36.1c0,0.2-0.1,0.3-0.2,0.5c-0.1,0.1-0.2,0.2-0.4,0.2h-18c-0.2,0-0.3,0.1-0.3,0.3v9.9c0,0.2,0.1,0.3,0.3,0.3h12.1
	c0.2,0,0.3,0.1,0.4,0.2c0.1,0.1,0.2,0.2,0.2,0.4v4c0,0.2-0.1,0.3-0.2,0.5c-0.1,0.1-0.2,0.2-0.4,0.2h-12.1c-0.2,0-0.3,0.1-0.3,0.3
	v10.2c0,0.2,0.1,0.3,0.3,0.3h18c0.2,0,0.3,0.1,0.4,0.2c0.1,0.1,0.2,0.2,0.2,0.4v4c0,0.2-0.1,0.3-0.2,0.5c-0.1,0.1-0.2,0.2-0.4,0.2
	h-23.7c-0.2,0-0.3-0.1-0.5-0.2c-0.1-0.1-0.2-0.3-0.2-0.5V32.1c0-0.2,0-0.3,0.2-0.4c0.1-0.1,0.3-0.2,0.5-0.2h23.7
	c0.2,0,0.3,0.1,0.4,0.2c0.1,0.1,0.2,0.2,0.2,0.4V36.1z"/>
<path d="M1343.5,68.9c-2.6,0-5-0.5-7-1.5c-2-1.1-3.6-2.5-4.6-4.4c-1.1-1.9-1.6-4-1.6-6.5v-13c0-2.5,0.6-4.6,1.6-6.5
	c1.1-1.9,2.6-3.3,4.6-4.3c2-1,4.3-1.5,7-1.5c2.6,0,4.9,0.5,6.9,1.5c2,1,3.5,2.4,4.6,4.2c1.1,1.8,1.6,3.9,1.6,6.2
	c0,0.2-0.1,0.3-0.2,0.5c-0.1,0.1-0.2,0.2-0.4,0.2l-4.8,0.3c-0.4,0-0.6-0.2-0.6-0.6c0-2.1-0.7-3.7-2-5c-1.3-1.3-3-1.9-5.1-1.9
	c-2.1,0-3.9,0.6-5.2,1.9c-1.3,1.3-2,2.9-2,5v13.5c0,2,0.7,3.7,2,5c1.3,1.3,3,1.9,5.2,1.9c2.2,0,3.9-0.6,5.1-1.8c1.3-1.3,2-2.9,2-5
	c0-0.4,0.2-0.6,0.6-0.6l4.8,0.2c0.2,0,0.3,0.1,0.4,0.2c0.1,0.1,0.2,0.2,0.2,0.4c0,2.4-0.6,4.5-1.6,6.3c-1.1,1.8-2.6,3.2-4.6,4.2
	C1348.4,68.4,1346.1,68.9,1343.5,68.9z"/>
<path d="M1400.8,31.5c0.2,0,0.3,0.1,0.4,0.2c0.1,0.1,0.2,0.2,0.2,0.4v4.1c0,0.2-0.1,0.3-0.2,0.5c-0.1,0.1-0.2,0.2-0.4,0.2h-9.7
	c-0.2,0-0.3,0.1-0.3,0.3v30.7c0,0.2-0.1,0.3-0.2,0.5c-0.1,0.1-0.2,0.2-0.4,0.2h-4.8c-0.2,0-0.3-0.1-0.5-0.2
	c-0.1-0.1-0.2-0.3-0.2-0.5V37.1c0-0.2-0.1-0.3-0.3-0.3h-9.3c-0.2,0-0.3-0.1-0.5-0.2c-0.1-0.1-0.2-0.3-0.2-0.5v-4.1
	c0-0.2,0.1-0.3,0.2-0.4c0.1-0.1,0.3-0.2,0.5-0.2H1400.8z"/>
<path d="M1445.8,36.1c0,0.2-0.1,0.3-0.2,0.5c-0.1,0.1-0.2,0.2-0.4,0.2h-18c-0.2,0-0.3,0.1-0.3,0.3v9.9c0,0.2,0.1,0.3,0.3,0.3h12.1
	c0.2,0,0.3,0.1,0.4,0.2c0.1,0.1,0.2,0.2,0.2,0.4v4c0,0.2-0.1,0.3-0.2,0.5c-0.1,0.1-0.2,0.2-0.4,0.2h-12.1c-0.2,0-0.3,0.1-0.3,0.3
	v10.2c0,0.2,0.1,0.3,0.3,0.3h18c0.2,0,0.3,0.1,0.4,0.2c0.1,0.1,0.2,0.2,0.2,0.4v4c0,0.2-0.1,0.3-0.2,0.5c-0.1,0.1-0.2,0.2-0.4,0.2
	h-23.8c-0.2,0-0.3-0.1-0.5-0.2c-0.1-0.1-0.2-0.3-0.2-0.5V32.1c0-0.2,0-0.3,0.2-0.4c0.1-0.1,0.3-0.2,0.5-0.2h23.8
	c0.2,0,0.3,0.1,0.4,0.2c0.1,0.1,0.2,0.2,0.2,0.4V36.1z"/>
<path d="M1466.4,68.5c-0.2,0-0.3-0.1-0.5-0.2c-0.1-0.1-0.2-0.3-0.2-0.5V32.1c0-0.2,0.1-0.3,0.2-0.4c0.2-0.1,0.3-0.2,0.5-0.2h12.9
	c2.5,0,4.7,0.4,6.6,1.3c1.9,0.9,3.4,2.1,4.4,3.8c1.1,1.6,1.6,3.5,1.6,5.7v15.3c0,2.2-0.5,4.1-1.6,5.8c-1,1.6-2.5,2.9-4.4,3.7
	c-1.9,0.9-4.1,1.3-6.6,1.3H1466.4z M1471.9,62.9c0,0.2,0.1,0.3,0.3,0.3h7.4c1.9,0,3.3-0.6,4.4-1.7c1.1-1.2,1.7-2.8,1.7-4.8V43.3
	c0-2-0.6-3.6-1.7-4.8c-1.1-1.2-2.6-1.8-4.5-1.8h-7.3c-0.2,0-0.3,0.1-0.3,0.3V62.9z"/>
<path d="M1557,49.2c-0.2,0.1-0.2,0.2,0,0.3c3.6,1.7,5.4,4.6,5.4,8.7c0,3.3-1.1,5.9-3.4,7.7c-2.2,1.7-5.1,2.6-8.7,2.6H1537
	c-0.2,0-0.3-0.1-0.5-0.2c-0.1-0.1-0.2-0.3-0.2-0.5V32.1c0-0.2,0.1-0.3,0.2-0.4c0.1-0.1,0.3-0.2,0.5-0.2h12.9c3.8,0,6.8,0.8,8.9,2.5
	c2.1,1.7,3.1,4.2,3.1,7.5C1561.9,45.2,1560.2,47.7,1557,49.2z M1542.8,36.8c-0.2,0-0.3,0.1-0.3,0.3v9.8c0,0.2,0.1,0.3,0.3,0.3h7.1
	c1.9,0,3.3-0.4,4.4-1.3c1.1-0.9,1.6-2.2,1.6-3.7c0-1.6-0.6-2.9-1.6-3.8c-1.1-1-2.5-1.4-4.4-1.4H1542.8z M1550.3,63.1
	c1.8,0,3.3-0.5,4.3-1.5c1.1-1,1.6-2.3,1.6-4c0-1.7-0.6-3.1-1.6-4c-1.1-1-2.6-1.5-4.4-1.5h-7.4c-0.2,0-0.3,0.1-0.3,0.3v10.5
	c0,0.2,0.1,0.3,0.3,0.3H1550.3z"/>
<path d="M1590.7,68.4c-0.2,0-0.3-0.1-0.5-0.2c-0.1-0.1-0.2-0.3-0.2-0.5V53.6c0-0.1,0-0.2,0-0.3l-10.9-21.1c-0.1-0.1-0.1-0.2-0.1-0.3
	c0-0.3,0.2-0.4,0.6-0.4h5.2c0.3,0,0.6,0.2,0.7,0.5l7.4,14.7c0.1,0.1,0.2,0.1,0.3,0l7.4-14.7c0.2-0.3,0.4-0.5,0.7-0.5h5.3
	c0.2,0,0.4,0.1,0.5,0.2c0.1,0.1,0.1,0.3,0,0.5l-10.9,21.1c-0.1,0.1-0.1,0.2-0.1,0.3v14.2c0,0.2-0.1,0.3-0.2,0.5
	c-0.1,0.1-0.2,0.2-0.4,0.2H1590.7z"/>
</svg>
